<svg id="svg" version="1.1" xmlns="http://www.w3.org/2000/svg" xmlns:xlink="http://www.w3.org/1999/xlink" width="400" height="88.42105263157895" viewBox="0, 0, 400,88.42105263157895"><g id="svgg"><path id="path0" d="M213.103 6.953 C 213.078 6.977,212.276 7.037,211.321 7.085 C 207.989 7.252,207.188 7.352,206.797 7.650 C 206.402 7.950,204.045 8.980,202.961 9.326 C 202.618 9.435,202.298 9.588,202.250 9.667 C 202.202 9.745,201.912 9.892,201.606 9.993 C 200.845 10.244,199.541 11.532,199.148 12.420 C 198.970 12.823,198.753 13.197,198.667 13.250 C 198.580 13.304,198.419 13.649,198.309 14.017 C 198.127 14.624,197.477 15.369,196.987 15.532 C 196.881 15.567,196.733 15.985,196.658 16.460 C 196.581 16.946,196.371 17.486,196.177 17.694 C 195.988 17.897,195.833 18.126,195.833 18.204 C 195.833 18.281,195.578 18.599,195.267 18.911 C 194.604 19.574,194.338 21.752,194.584 24.491 C 194.655 25.275,194.708 26.067,194.703 26.250 C 194.698 26.433,194.656 27.558,194.610 28.750 C 194.499 31.652,194.561 31.989,195.356 32.817 C 195.717 33.193,195.976 33.500,195.931 33.500 C 195.718 33.500,196.494 34.864,196.880 35.168 C 197.275 35.478,198.833 38.358,198.833 38.778 C 198.833 38.872,199.133 39.085,199.500 39.250 C 200.024 39.486,200.255 39.737,200.579 40.423 C 200.885 41.071,201.108 41.324,201.445 41.409 C 201.694 41.471,202.352 41.882,202.907 42.321 C 203.728 42.971,204.893 43.561,205.333 43.552 C 205.480 43.548,208.979 44.818,209.287 44.986 C 209.634 45.176,214.741 45.551,217.473 45.588 C 219.461 45.614,221.497 45.370,222.119 45.030 C 222.322 44.919,222.836 44.787,223.262 44.737 C 223.687 44.687,224.421 44.471,224.893 44.257 C 226.429 43.559,226.940 43.373,227.648 43.253 C 228.100 43.177,228.433 43.003,228.592 42.760 C 228.752 42.516,229.147 42.311,229.728 42.172 C 230.706 41.937,231.833 41.042,231.833 40.499 C 231.833 40.327,231.992 40.074,232.186 39.939 C 232.626 39.630,233.148 38.789,233.148 38.387 C 233.148 37.721,233.609 36.547,234.053 36.079 C 234.680 35.416,234.932 34.899,235.065 34.000 C 235.317 32.293,235.566 31.443,235.986 30.853 C 236.330 30.370,236.335 30.306,236.103 29.465 C 235.879 28.652,235.629 24.583,235.628 21.750 C 235.628 21.102,235.520 20.324,235.384 20.000 C 235.079 19.272,234.967 18.840,234.976 18.431 C 234.986 18.013,234.014 15.500,233.843 15.500 C 233.703 15.500,232.846 13.639,232.740 13.104 C 232.706 12.932,232.563 12.616,232.422 12.402 C 232.282 12.187,232.167 11.929,232.167 11.828 C 232.167 11.728,231.938 11.453,231.659 11.218 C 231.380 10.983,231.011 10.515,230.839 10.178 C 230.566 9.643,230.312 9.472,228.838 8.835 C 227.910 8.434,226.968 7.937,226.745 7.730 C 226.297 7.315,225.689 7.259,222.247 7.317 C 221.237 7.334,219.887 7.270,219.247 7.175 C 218.208 7.020,213.216 6.840,213.103 6.953 " stroke="none" fill="#f08421" fill-rule="evenodd"></path><path id="path1" d="M80.972 0.552 C 80.910 1.079,80.933 1.105,81.495 1.136 C 82.521 1.193,83.744 1.362,83.917 1.471 C 84.008 1.528,93.158 1.567,104.250 1.556 C 123.673 1.537,133.697 1.681,134.432 1.989 C 134.624 2.070,134.901 2.389,135.048 2.698 C 135.255 3.135,135.504 3.329,136.161 3.565 C 136.644 3.739,137.238 4.120,137.545 4.454 C 137.841 4.776,138.186 5.124,138.312 5.228 C 139.458 6.172,141.282 8.141,141.576 8.752 C 141.843 9.306,142.131 9.603,142.665 9.877 C 143.306 10.206,143.416 10.348,143.595 11.071 C 143.748 11.694,143.976 12.057,144.539 12.571 C 145.190 13.167,146.167 14.816,146.167 15.321 C 146.167 15.417,146.465 15.684,146.829 15.914 C 147.559 16.375,147.917 16.840,148.093 17.553 C 148.164 17.842,148.450 18.175,148.839 18.420 C 149.240 18.673,149.538 19.026,149.657 19.389 C 149.881 20.067,150.335 20.511,151.041 20.746 C 151.425 20.873,151.602 21.068,151.736 21.514 C 151.962 22.261,152.447 22.857,153.045 23.124 C 153.299 23.237,153.581 23.536,153.671 23.790 C 153.762 24.043,153.938 24.438,154.063 24.667 C 154.188 24.896,154.381 25.366,154.492 25.711 C 154.625 26.122,154.865 26.427,155.188 26.594 C 155.706 26.862,156.332 27.730,156.333 28.183 C 156.333 28.507,156.852 29.000,157.192 29.000 C 157.548 29.000,158.073 29.627,158.457 30.511 C 158.639 30.930,158.967 31.463,159.186 31.697 C 159.404 31.930,159.921 32.584,160.333 33.151 C 160.746 33.717,161.646 34.676,162.333 35.281 C 163.944 36.699,164.587 37.452,164.993 38.400 C 165.215 38.919,165.422 39.167,165.632 39.167 C 166.058 39.167,166.652 39.839,166.908 40.609 C 167.075 41.112,167.279 41.328,167.858 41.612 C 168.448 41.901,168.671 42.142,168.978 42.820 C 169.237 43.393,169.460 43.667,169.667 43.667 C 170.073 43.667,170.999 44.455,171.005 44.806 C 171.013 45.228,171.350 45.581,172.067 45.921 C 172.533 46.141,172.787 46.405,172.960 46.846 C 173.101 47.204,173.387 47.549,173.643 47.668 C 174.703 48.161,174.925 48.334,175.061 48.779 C 175.315 49.605,175.432 49.742,176.208 50.116 C 176.784 50.393,177.013 50.619,177.156 51.050 C 177.369 51.695,177.925 52.272,178.417 52.358 C 178.611 52.392,178.889 52.702,179.083 53.103 C 179.528 54.018,179.773 54.289,180.441 54.606 C 180.757 54.756,181.045 55.039,181.099 55.252 C 181.213 55.708,181.899 56.372,182.583 56.689 C 182.866 56.820,183.232 57.209,183.427 57.584 C 183.694 58.099,183.934 58.303,184.506 58.502 C 185.210 58.747,185.317 58.867,185.835 60.000 C 185.898 60.137,186.240 60.347,186.595 60.466 C 187.417 60.741,187.788 61.079,187.918 61.672 C 188.039 62.223,188.352 62.518,189.061 62.750 C 189.523 62.901,189.682 63.104,190.163 64.156 C 190.278 64.407,190.370 64.463,191.384 64.898 C 191.821 65.085,192.092 65.346,192.254 65.734 C 192.420 66.132,192.712 66.406,193.244 66.664 C 193.945 67.003,194.667 67.749,194.667 68.134 C 194.667 68.226,194.900 68.382,195.186 68.482 C 195.472 68.581,196.138 69.095,196.667 69.623 C 197.195 70.151,198.086 70.958,198.647 71.415 C 199.208 71.873,199.667 72.323,199.667 72.415 C 199.668 72.617,200.912 73.149,201.595 73.240 C 202.454 73.354,202.638 73.503,202.752 74.180 C 202.873 74.892,202.924 74.919,204.407 75.057 C 205.295 75.139,205.618 75.410,205.782 76.214 C 205.888 76.731,206.117 76.886,207.444 77.343 C 207.946 77.515,208.632 77.873,208.970 78.138 C 209.794 78.785,210.394 78.949,212.750 79.175 C 217.333 79.615,223.500 79.129,223.500 78.329 C 223.500 78.240,223.631 78.165,223.792 78.163 C 223.952 78.161,224.271 78.013,224.500 77.833 C 224.729 77.654,224.970 77.506,225.035 77.504 C 225.451 77.491,227.000 76.770,227.000 76.590 C 227.000 76.231,227.554 75.665,227.984 75.584 C 228.936 75.406,230.667 74.606,230.667 74.344 C 230.667 73.775,231.158 73.355,231.961 73.238 C 232.942 73.095,233.613 72.765,233.741 72.362 C 233.795 72.192,234.036 71.948,234.276 71.819 C 234.517 71.690,234.980 71.341,235.306 71.043 C 235.632 70.744,235.959 70.500,236.033 70.500 C 236.106 70.500,236.167 70.395,236.167 70.266 C 236.167 70.008,237.444 69.034,238.344 68.606 C 238.678 68.447,239.056 68.073,239.250 67.708 C 239.490 67.258,239.828 66.967,240.458 66.667 C 241.199 66.313,241.332 66.180,241.333 65.792 C 241.334 65.180,241.820 64.726,242.620 64.591 C 243.211 64.491,243.309 64.400,243.618 63.669 C 243.917 62.962,244.048 62.833,244.628 62.677 C 245.403 62.468,245.577 62.293,245.869 61.428 C 246.054 60.878,246.201 60.748,246.958 60.468 C 247.657 60.209,247.851 60.054,247.924 59.697 C 248.094 58.856,248.412 58.458,249.129 58.187 C 249.643 57.992,249.922 57.755,250.129 57.336 C 250.342 56.907,250.578 56.711,251.038 56.584 C 251.819 56.368,252.199 55.992,252.416 55.219 C 252.551 54.736,252.704 54.573,253.168 54.422 C 253.636 54.269,253.835 54.054,254.187 53.324 C 254.556 52.557,254.720 52.390,255.243 52.242 C 255.847 52.073,255.926 51.980,256.519 50.753 C 256.675 50.430,256.992 50.167,257.421 50.003 C 258.362 49.644,258.500 49.528,258.500 49.103 C 258.500 48.666,259.063 48.093,259.667 47.916 C 260.292 47.733,260.622 47.374,260.739 46.750 C 260.826 46.285,260.951 46.155,261.464 45.989 C 262.293 45.722,262.469 45.562,262.870 44.709 C 263.125 44.167,263.330 43.959,263.681 43.889 C 264.257 43.774,264.565 43.436,264.821 42.638 C 265.036 41.968,265.235 41.758,266.039 41.353 C 266.406 41.168,266.606 40.926,266.675 40.583 C 266.829 39.816,267.129 39.361,267.664 39.085 C 267.932 38.946,268.374 38.514,268.646 38.125 C 268.918 37.735,270.187 36.348,271.466 35.042 C 273.033 33.442,273.823 32.511,273.888 32.187 C 273.952 31.865,274.113 31.675,274.375 31.609 C 274.750 31.515,275.333 30.596,275.333 30.100 C 275.333 29.718,276.007 29.002,276.599 28.754 C 276.950 28.608,277.167 28.401,277.167 28.214 C 277.167 27.757,277.968 26.671,278.437 26.492 C 278.681 26.400,278.955 26.080,279.108 25.709 C 279.522 24.708,280.506 23.167,280.731 23.167 C 281.055 23.167,281.884 22.216,282.076 21.623 C 282.198 21.246,282.440 20.996,282.887 20.786 C 283.387 20.551,283.610 20.293,283.918 19.597 C 284.134 19.108,284.532 18.530,284.804 18.313 C 285.075 18.095,285.453 17.605,285.644 17.224 C 285.835 16.843,286.199 16.376,286.454 16.186 C 287.304 15.551,287.477 15.304,287.926 14.073 C 288.367 12.862,288.667 12.450,289.360 12.098 C 289.556 11.998,289.769 11.804,289.832 11.667 C 290.460 10.293,290.627 10.065,291.208 9.792 C 291.552 9.630,291.833 9.410,291.833 9.303 C 291.833 8.979,293.028 6.667,293.195 6.667 C 293.398 6.667,295.460 5.010,296.000 4.415 C 296.229 4.162,296.815 3.777,297.301 3.559 C 297.955 3.266,298.230 3.036,298.354 2.678 C 298.629 1.891,298.250 1.934,306.417 1.761 C 320.772 1.458,360.476 1.554,361.966 1.896 C 362.687 2.061,363.500 2.400,363.500 2.535 C 363.500 2.610,363.874 3.064,364.332 3.544 C 364.789 4.024,365.164 4.481,365.165 4.560 C 365.166 4.639,365.329 4.872,365.528 5.078 C 366.558 6.148,366.590 8.179,365.589 8.966 C 365.385 9.126,365.126 9.535,365.014 9.874 C 364.794 10.540,364.041 11.275,363.418 11.431 C 363.201 11.486,362.941 11.739,362.832 12.003 C 362.655 12.430,361.810 13.000,361.354 13.000 C 361.061 13.000,360.160 13.602,359.903 13.969 C 359.621 14.371,358.185 15.208,357.281 15.497 C 356.906 15.616,356.589 15.846,356.507 16.058 C 356.323 16.535,355.682 17.101,355.167 17.242 C 354.423 17.446,353.731 17.869,353.572 18.217 C 353.406 18.580,352.156 19.315,351.127 19.653 C 350.687 19.798,350.427 20.021,350.240 20.414 C 350.093 20.724,349.779 21.042,349.530 21.133 C 349.284 21.223,348.721 21.427,348.278 21.584 C 347.743 21.775,347.370 22.039,347.169 22.369 C 346.783 23.005,346.049 23.448,344.878 23.753 C 343.807 24.032,343.886 23.977,343.527 24.693 C 343.293 25.160,343.037 25.324,341.870 25.758 C 340.883 26.124,340.313 26.453,339.870 26.911 C 339.529 27.264,338.874 27.719,338.413 27.924 C 337.901 28.151,337.481 28.475,337.330 28.758 C 337.177 29.044,336.758 29.365,336.229 29.599 C 335.399 29.967,334.667 30.664,334.667 31.087 C 334.667 31.429,333.890 31.834,332.616 32.157 C 331.512 32.437,331.390 32.513,331.083 33.102 C 330.860 33.531,330.585 33.791,330.250 33.889 C 328.732 34.332,327.880 34.766,327.367 35.356 C 326.999 35.779,326.497 36.105,325.846 36.342 C 325.229 36.567,324.742 36.874,324.514 37.184 C 324.315 37.452,323.837 37.820,323.451 38.001 C 322.768 38.323,321.990 38.941,321.718 39.379 C 321.587 39.589,320.127 40.588,319.377 40.981 C 319.171 41.089,319.019 41.231,319.037 41.297 C 319.056 41.363,318.981 41.579,318.870 41.778 C 318.677 42.126,318.442 42.215,317.167 42.423 C 316.466 42.537,315.943 42.855,315.180 43.630 C 314.584 44.235,313.486 44.820,312.917 44.835 C 312.493 44.846,312.146 45.128,311.851 45.701 C 311.607 46.174,311.243 46.379,309.547 46.994 C 308.751 47.283,308.436 47.498,308.185 47.924 C 307.949 48.323,307.626 48.560,307.025 48.773 C 306.030 49.127,305.836 49.269,305.473 49.911 C 305.311 50.199,304.954 50.486,304.608 50.605 C 303.802 50.884,303.000 51.503,303.000 51.846 C 303.000 52.447,302.447 52.837,301.333 53.019 C 300.737 53.117,300.082 53.229,299.877 53.268 C 299.649 53.311,299.375 53.592,299.172 53.989 C 298.841 54.639,297.988 55.106,296.548 55.427 C 295.633 55.631,295.500 55.692,295.500 55.905 C 295.500 56.374,294.800 56.967,293.832 57.320 C 293.143 57.572,292.771 57.809,292.677 58.057 C 292.600 58.259,292.323 58.535,292.060 58.670 C 291.798 58.806,291.337 59.080,291.036 59.280 C 290.735 59.479,290.274 59.690,290.011 59.748 C 289.694 59.817,289.465 60.015,289.333 60.335 C 289.109 60.876,288.601 61.263,287.892 61.432 C 287.166 61.605,286.500 62.041,286.500 62.343 C 286.500 62.830,285.836 63.233,284.447 63.586 C 283.185 63.908,283.063 63.977,282.805 64.518 C 282.423 65.322,282.278 65.413,280.700 65.837 C 279.494 66.160,279.249 66.291,278.795 66.856 C 278.423 67.319,277.994 67.606,277.289 67.863 C 276.654 68.094,276.257 68.345,276.171 68.569 C 276.000 69.016,275.528 69.426,275.000 69.588 C 274.415 69.767,273.333 70.471,273.333 70.672 C 273.333 70.960,271.842 71.803,271.116 71.925 C 270.247 72.072,269.667 72.444,269.667 72.855 C 269.667 73.555,269.292 73.812,267.715 74.192 C 266.481 74.490,266.147 74.634,266.065 74.908 C 265.875 75.531,265.486 75.802,264.142 76.248 C 263.113 76.590,262.682 76.833,262.238 77.325 C 261.922 77.675,261.458 78.037,261.207 78.129 C 260.955 78.222,260.401 78.421,259.974 78.573 C 259.449 78.760,259.167 78.967,259.099 79.216 C 259.027 79.480,258.554 79.793,257.411 80.333 C 256.230 80.891,255.797 81.181,255.725 81.463 C 255.621 81.870,255.218 82.149,254.560 82.269 C 253.552 82.451,252.842 82.873,252.548 83.462 C 252.262 84.036,251.692 84.364,250.583 84.592 C 249.434 84.829,249.229 84.889,249.042 85.040 C 248.927 85.132,248.833 85.337,248.833 85.495 C 248.833 86.116,248.265 86.470,246.824 86.747 C 244.864 87.124,244.667 87.223,244.667 87.830 L 244.667 88.333 248.083 88.333 L 251.500 88.333 251.500 87.853 C 251.500 87.329,251.794 87.173,252.786 87.169 C 253.426 87.166,253.667 86.810,253.667 85.863 L 253.667 85.204 255.516 85.140 C 257.638 85.068,257.833 84.948,257.833 83.718 L 257.833 83.000 258.708 82.980 C 259.190 82.969,259.629 82.966,259.685 82.972 C 260.306 83.045,261.430 82.342,261.650 81.744 C 261.783 81.381,261.905 81.064,261.920 81.040 C 261.936 81.016,262.579 80.960,263.349 80.917 C 265.645 80.786,266.158 80.490,266.164 79.292 C 266.167 78.859,266.209 78.833,266.928 78.833 C 268.123 78.833,268.333 78.645,268.333 77.577 L 268.333 76.667 269.316 76.667 C 270.426 76.667,270.500 76.588,270.500 75.403 L 270.500 74.667 272.156 74.667 C 274.475 74.667,274.667 74.573,274.667 73.435 L 274.667 72.529 276.590 72.473 C 278.748 72.410,278.827 72.366,278.831 71.232 L 278.833 70.547 279.746 70.452 C 280.959 70.327,281.000 70.288,281.000 69.255 L 281.000 68.362 282.923 68.306 C 285.109 68.242,285.160 68.211,285.164 66.958 L 285.167 66.167 286.157 66.167 C 286.701 66.167,287.193 66.092,287.250 66.000 C 287.307 65.908,287.493 65.833,287.664 65.833 C 288.099 65.833,288.968 65.062,289.031 64.620 C 289.076 64.305,289.230 64.231,290.083 64.112 C 291.351 63.935,291.500 63.802,291.500 62.837 L 291.500 62.048 293.269 61.958 C 295.280 61.855,295.444 61.765,295.632 60.658 L 295.758 59.917 296.667 59.865 C 297.718 59.805,297.827 59.691,297.831 58.646 L 297.833 57.876 299.690 57.800 C 301.816 57.712,302.000 57.600,302.000 56.385 L 302.000 55.667 302.718 55.667 C 303.698 55.667,304.016 55.391,304.122 54.448 C 304.210 53.667,304.299 53.587,305.006 53.652 C 306.670 53.805,308.072 53.157,308.232 52.159 L 308.337 51.500 309.219 51.500 C 310.321 51.500,310.500 51.321,310.500 50.217 L 310.500 49.333 312.411 49.333 C 314.574 49.333,314.667 49.279,314.667 48.011 L 314.667 47.333 315.458 47.331 C 317.346 47.327,318.667 46.643,318.667 45.671 C 318.667 45.243,318.724 45.206,319.532 45.111 C 320.572 44.987,320.830 44.761,320.951 43.862 L 321.042 43.178 322.007 43.069 C 323.066 42.949,323.160 42.833,323.164 41.640 L 323.167 41.029 324.992 40.973 C 327.086 40.908,327.182 40.855,327.295 39.676 L 327.376 38.833 328.313 38.826 C 330.411 38.810,331.333 38.354,331.333 37.334 C 331.333 36.833,331.639 36.673,332.605 36.669 C 333.265 36.666,333.473 36.411,333.606 35.442 L 333.712 34.667 334.481 34.663 C 335.374 34.660,336.636 33.964,337.115 33.212 C 337.522 32.572,337.649 32.505,338.469 32.503 C 339.536 32.499,339.772 32.307,339.900 31.339 L 340.011 30.500 340.797 30.497 C 341.607 30.495,342.049 30.334,341.976 30.068 C 341.953 29.985,341.991 29.560,342.060 29.125 L 342.187 28.333 343.855 28.333 C 345.912 28.333,346.091 28.247,346.230 27.195 L 346.339 26.379 348.034 26.211 C 349.945 26.022,350.333 25.772,350.333 24.732 C 350.333 24.185,350.355 24.167,350.989 24.167 C 352.172 24.167,352.500 23.942,352.503 23.129 C 352.506 22.146,352.625 22.028,353.670 21.968 L 354.583 21.917 354.633 20.958 L 354.683 20.000 356.217 19.980 C 358.693 19.948,358.741 19.927,358.800 18.791 L 358.850 17.833 359.967 17.826 C 362.303 17.811,362.841 17.568,362.988 16.462 L 363.083 15.750 363.996 15.698 C 365.055 15.638,365.161 15.527,365.164 14.458 L 365.167 13.667 365.928 13.667 C 367.121 13.667,367.333 13.478,367.333 12.419 L 367.333 11.517 368.285 11.467 C 369.496 11.403,369.463 11.522,369.482 7.167 C 369.510 0.967,369.603 1.189,366.966 1.114 L 365.250 1.066 365.198 0.533 L 365.146 0.000 330.989 0.000 L 296.833 0.000 296.833 0.500 C 296.833 1.038,296.687 1.088,295.333 1.015 C 293.478 0.915,292.015 1.584,291.848 2.609 C 291.752 3.205,291.703 3.249,291.007 3.368 C 289.875 3.561,289.500 4.342,289.500 6.503 C 289.500 7.353,289.334 7.492,288.312 7.498 C 287.729 7.501,287.534 7.773,287.470 8.670 L 287.417 9.417 286.519 9.526 C 285.373 9.666,285.339 9.734,285.336 11.875 L 285.333 13.667 284.521 13.667 C 283.401 13.667,281.887 14.346,281.645 14.958 C 281.546 15.210,281.406 15.532,281.336 15.673 C 281.265 15.815,281.155 16.387,281.090 16.945 L 280.972 17.960 280.283 18.052 C 279.488 18.159,279.249 18.417,279.103 19.329 C 279.007 19.931,278.947 19.994,278.374 20.090 C 276.985 20.325,277.059 20.204,276.901 22.492 L 276.786 24.167 276.132 24.167 C 275.049 24.167,274.833 24.375,274.833 25.423 L 274.833 26.333 273.950 26.333 C 272.717 26.333,272.667 26.423,272.667 28.617 L 272.667 30.500 271.958 30.520 C 271.569 30.531,271.186 30.528,271.107 30.514 C 270.756 30.451,270.531 30.906,270.525 31.692 C 270.517 32.714,270.610 32.624,269.500 32.693 L 268.583 32.750 268.533 33.709 L 268.483 34.667 267.769 34.667 C 267.377 34.667,266.999 34.723,266.931 34.792 C 266.862 34.860,266.718 34.917,266.611 34.917 C 266.491 34.917,266.397 35.285,266.367 35.875 L 266.317 36.833 265.418 36.833 C 264.378 36.833,264.340 36.873,264.214 38.088 L 264.120 39.000 263.343 39.000 C 262.354 39.000,262.167 39.200,262.167 40.262 L 262.167 41.123 261.402 41.209 C 260.445 41.317,260.287 41.476,260.174 42.452 C 260.086 43.211,260.062 43.240,259.417 43.370 C 258.673 43.519,258.167 44.010,258.167 44.581 C 258.167 45.132,257.751 45.391,256.915 45.359 C 256.053 45.326,255.833 45.589,255.833 46.656 L 255.833 47.333 255.115 47.333 C 254.120 47.333,253.847 47.587,253.724 48.625 L 253.620 49.500 252.905 49.500 C 251.795 49.500,251.676 49.720,251.681 51.776 C 251.685 53.885,251.932 53.625,249.832 53.730 C 247.823 53.831,247.500 54.033,247.500 55.185 L 247.500 55.833 246.750 55.833 C 245.782 55.833,245.333 56.248,245.333 57.143 L 245.333 57.787 244.471 57.889 C 243.407 58.015,243.348 58.073,243.225 59.118 L 243.125 59.961 242.381 60.045 C 241.445 60.151,241.287 60.313,241.174 61.288 C 241.084 62.068,241.077 62.076,240.357 62.198 C 239.402 62.361,239.225 62.533,239.091 63.422 L 238.980 64.167 238.198 64.169 C 237.119 64.173,236.959 64.320,236.870 65.394 L 236.793 66.318 235.857 66.367 L 234.921 66.417 234.864 67.250 C 234.794 68.267,234.705 68.369,233.892 68.360 C 232.941 68.349,232.667 68.473,232.667 68.911 C 232.667 69.732,231.652 70.439,230.313 70.551 C 228.947 70.666,228.698 70.837,228.552 71.762 C 228.425 72.564,228.291 72.661,227.309 72.664 C 226.432 72.667,226.333 72.793,226.333 73.911 L 226.333 74.628 223.521 74.693 C 220.480 74.762,220.169 74.851,220.164 75.645 C 220.158 76.893,220.332 76.833,216.660 76.833 L 213.360 76.833 213.254 76.351 C 213.005 75.219,211.641 74.667,209.091 74.667 L 207.209 74.667 207.103 74.003 C 206.951 73.050,205.775 72.518,204.083 72.636 C 203.348 72.688,203.157 72.481,203.140 71.612 C 203.131 71.184,203.054 70.833,202.969 70.833 C 202.884 70.833,202.863 70.753,202.924 70.656 C 202.984 70.558,202.932 70.492,202.808 70.509 C 202.685 70.526,202.227 70.531,201.792 70.520 L 201.000 70.500 201.000 69.513 C 201.000 68.521,200.694 68.197,199.899 68.345 C 199.269 68.462,199.040 68.310,198.945 67.708 C 198.729 66.342,198.798 66.421,197.776 66.367 C 196.752 66.312,196.742 66.298,196.825 64.987 C 196.863 64.392,196.556 64.195,195.500 64.135 L 194.593 64.083 194.641 63.321 C 194.695 62.442,194.440 62.124,193.717 62.169 C 192.776 62.228,192.500 62.025,192.497 61.272 C 192.494 60.317,192.326 60.133,191.370 60.041 L 190.538 59.961 190.432 59.165 C 190.278 58.001,189.915 57.860,187.042 57.839 C 186.363 57.834,186.333 57.812,186.333 57.322 C 186.333 57.041,186.251 56.657,186.150 56.469 C 186.017 56.220,186.017 56.157,186.150 56.240 C 186.251 56.302,186.333 56.282,186.333 56.194 C 186.333 55.982,186.002 55.867,185.002 55.735 L 184.167 55.624 184.146 54.895 C 184.108 53.589,184.256 53.723,182.820 53.688 L 181.974 53.667 182.083 53.167 C 182.201 52.633,181.909 51.500,181.654 51.500 C 181.569 51.500,181.500 51.398,181.500 51.272 C 181.500 50.880,180.849 50.197,180.373 50.090 C 179.942 49.994,179.915 49.932,179.882 48.978 C 179.839 47.739,179.700 47.559,178.678 47.418 L 177.873 47.308 177.793 46.469 C 177.700 45.507,177.518 45.339,176.559 45.336 C 175.783 45.333,175.667 45.179,175.667 44.159 C 175.667 43.399,175.363 43.167,174.365 43.167 L 173.709 43.167 173.628 42.324 C 173.528 41.277,173.433 41.182,172.362 41.056 L 171.500 40.954 171.500 40.239 C 171.500 39.318,171.182 39.000,170.261 39.000 L 169.547 39.000 169.449 38.057 C 169.337 36.966,169.200 36.839,168.125 36.836 L 167.333 36.833 167.333 35.927 C 167.333 34.887,167.301 34.853,166.168 34.719 C 165.264 34.612,165.223 34.557,165.128 33.333 L 165.083 32.750 164.125 32.700 L 163.167 32.650 163.165 31.783 C 163.160 29.847,162.689 28.838,161.717 28.681 L 161.083 28.579 161.035 27.665 C 160.978 26.582,160.736 26.333,159.739 26.333 C 158.999 26.333,158.833 26.069,158.833 24.892 C 158.833 24.432,158.312 24.167,157.406 24.167 C 156.840 24.167,156.833 24.158,156.833 23.430 C 156.833 22.245,156.760 22.167,155.649 22.167 L 154.667 22.167 154.646 21.333 C 154.634 20.875,154.616 20.407,154.604 20.293 C 154.591 20.163,154.241 20.063,153.667 20.027 C 152.556 19.957,152.712 20.255,152.616 18.021 C 152.524 15.881,152.499 15.840,151.292 15.836 C 150.513 15.833,150.500 15.824,150.486 15.292 C 150.458 14.154,150.399 13.876,150.132 13.608 C 149.980 13.456,149.807 13.181,149.749 12.996 C 149.690 12.812,149.348 12.511,148.988 12.327 C 148.351 12.002,148.333 11.970,148.333 11.112 C 148.333 9.948,148.114 9.684,147.042 9.557 L 146.167 9.454 146.167 8.739 C 146.167 7.811,145.850 7.500,144.905 7.500 L 144.167 7.500 144.167 6.680 C 144.167 5.427,144.092 5.333,143.095 5.333 L 142.225 5.333 142.071 4.292 C 141.963 3.564,141.841 3.243,141.667 3.228 C 141.529 3.215,141.098 3.196,140.708 3.186 L 140.000 3.167 140.000 2.260 C 140.000 1.039,140.053 1.059,136.625 1.011 C 135.859 1.000,135.833 0.984,135.833 0.500 L 135.833 0.000 108.435 -0.000 L 81.036 -0.000 80.972 0.552 M210.500 0.500 L 210.500 1.000 211.583 1.000 L 212.667 1.000 212.667 0.500 L 212.667 0.000 211.583 0.000 L 210.500 0.000 210.500 0.500 M216.833 0.500 C 216.833 0.922,216.898 1.000,217.250 1.000 C 217.602 1.000,217.667 0.922,217.667 0.500 C 217.667 0.078,217.602 0.000,217.250 0.000 C 216.898 0.000,216.833 0.078,216.833 0.500 M219.000 0.500 L 219.000 1.000 221.083 1.000 L 223.167 1.000 223.167 0.500 L 223.167 0.000 221.083 0.000 L 219.000 0.000 219.000 0.500 M206.947 1.176 C 207.514 1.250,208.189 1.247,208.447 1.170 C 208.781 1.069,208.485 1.031,207.417 1.035 L 205.917 1.042 206.947 1.176 M224.797 1.123 C 225.282 1.157,226.032 1.156,226.464 1.122 C 226.896 1.088,226.500 1.060,225.583 1.061 C 224.667 1.061,224.313 1.089,224.797 1.123 M203.627 1.375 C 203.476 1.491,203.309 1.952,203.249 2.417 C 203.172 3.024,203.191 3.182,203.319 3.000 C 203.416 2.862,203.496 2.627,203.497 2.477 C 203.502 1.992,204.087 1.461,204.760 1.331 L 205.417 1.205 204.657 1.186 C 204.239 1.175,203.775 1.260,203.627 1.375 M228.640 1.620 C 229.270 1.926,229.608 2.216,229.796 2.610 C 230.180 3.415,230.488 3.336,230.384 2.458 C 230.265 1.470,229.861 1.164,228.690 1.177 L 227.750 1.187 228.640 1.620 M199.500 3.288 C 199.147 3.422,199.003 3.685,199.018 4.167 C 199.029 4.534,199.048 4.520,199.186 4.044 C 199.340 3.511,199.459 3.442,200.500 3.278 C 200.791 3.232,200.740 3.209,200.333 3.203 C 200.012 3.197,199.637 3.236,199.500 3.288 M232.860 3.383 C 234.043 3.656,234.286 3.858,234.456 4.719 C 234.585 5.370,234.632 5.416,235.299 5.530 C 236.324 5.705,236.388 5.786,236.734 7.358 C 236.793 7.626,237.061 7.935,237.417 8.145 C 237.739 8.335,238.095 8.699,238.208 8.954 C 238.657 9.968,238.898 9.991,238.782 9.008 C 238.654 7.931,238.433 7.671,237.544 7.551 C 236.879 7.462,236.875 7.457,236.774 6.606 C 236.653 5.588,236.375 5.333,235.385 5.333 L 234.667 5.333 234.667 4.615 C 234.667 3.536,234.441 3.341,233.083 3.247 L 231.917 3.166 232.860 3.383 M195.960 7.451 C 196.168 7.491,196.468 7.490,196.627 7.448 C 196.786 7.406,196.617 7.374,196.250 7.375 C 195.883 7.377,195.753 7.411,195.960 7.451 M193.130 9.614 C 192.817 9.696,192.591 10.545,192.713 11.187 C 192.767 11.473,192.794 11.419,192.811 10.990 C 192.843 10.156,193.167 9.798,194.018 9.660 L 194.750 9.542 194.083 9.540 C 193.717 9.539,193.288 9.572,193.130 9.614 M238.862 10.861 C 238.824 11.663,238.966 12.000,239.342 12.000 C 239.888 12.000,240.477 12.708,240.729 13.667 L 240.970 14.583 240.985 13.733 C 241.013 12.155,240.660 11.675,239.468 11.669 C 239.062 11.667,239.013 11.600,238.955 10.958 C 238.893 10.265,238.891 10.263,238.862 10.861 M70.724 11.875 C 70.682 11.944,70.695 12.078,70.755 12.174 C 70.814 12.270,70.770 12.459,70.657 12.595 C 70.420 12.881,70.574 16.850,70.842 17.350 C 70.948 17.548,71.296 17.680,71.916 17.757 L 72.833 17.872 72.836 18.478 C 72.841 19.687,73.249 19.855,76.446 19.962 L 79.000 20.048 79.018 20.649 C 79.058 22.031,78.890 21.911,80.875 21.969 C 82.867 22.027,82.678 22.150,82.727 20.754 C 82.751 20.075,81.390 19.032,80.448 19.008 C 80.283 19.003,80.193 18.925,80.250 18.833 C 80.307 18.742,80.279 18.667,80.188 18.667 C 80.097 18.667,79.999 18.498,79.970 18.292 C 79.932 18.027,79.623 17.761,78.917 17.387 C 78.367 17.096,77.681 16.587,77.394 16.256 C 76.918 15.708,74.227 14.180,73.720 14.170 C 73.348 14.163,72.878 13.343,72.767 12.508 L 72.656 11.671 71.729 11.711 C 71.219 11.732,70.767 11.806,70.724 11.875 M190.960 11.868 C 190.721 12.046,190.656 12.434,190.594 14.083 C 190.524 15.941,190.529 15.982,190.662 14.667 C 190.849 12.809,191.031 12.373,191.744 12.075 C 192.751 11.655,193.088 11.883,192.125 12.333 C 191.458 12.646,191.064 13.339,190.942 14.417 C 190.864 15.104,190.875 15.159,191.005 14.733 C 191.092 14.448,191.521 13.880,191.957 13.471 C 193.074 12.423,193.089 11.772,192.000 11.701 C 191.572 11.673,191.126 11.744,190.960 11.868 M238.793 12.471 C 238.740 12.670,238.766 12.792,238.849 12.740 C 238.932 12.689,239.000 12.837,239.000 13.069 C 239.000 13.368,239.143 13.566,239.490 13.745 C 239.759 13.884,240.097 14.165,240.240 14.369 C 240.383 14.574,240.500 14.667,240.500 14.576 C 240.500 14.340,239.654 13.110,239.378 12.944 C 239.250 12.868,239.087 12.648,239.016 12.456 L 238.888 12.108 238.793 12.471 M192.387 13.375 C 191.896 13.920,191.818 14.111,192.083 14.111 C 192.213 14.111,192.280 14.049,192.233 13.972 C 192.186 13.896,192.220 13.833,192.310 13.833 C 192.399 13.833,192.510 13.927,192.556 14.042 C 192.615 14.187,192.649 14.174,192.667 14.000 C 192.682 13.862,192.713 13.581,192.736 13.375 C 192.759 13.169,192.766 13.000,192.751 13.000 C 192.737 13.000,192.573 13.169,192.387 13.375 M241.000 16.407 C 241.000 16.539,241.377 17.040,241.838 17.521 C 242.957 18.688,242.917 18.386,242.917 25.583 C 242.917 33.052,242.740 33.969,241.286 34.059 C 241.010 34.076,240.908 34.165,240.955 34.347 C 241.047 34.698,242.465 34.502,242.761 34.096 C 243.250 33.427,243.308 18.985,242.827 17.613 C 242.473 16.605,241.000 15.632,241.000 16.407 M189.750 17.422 C 189.383 17.741,188.952 18.114,188.792 18.251 C 188.559 18.449,188.504 18.746,188.521 19.708 C 188.542 20.912,188.542 20.913,188.666 20.072 C 188.839 18.891,189.071 18.542,189.836 18.313 C 190.389 18.147,190.965 16.783,190.458 16.838 C 190.435 16.840,190.117 17.103,189.750 17.422 M190.122 19.188 C 189.962 19.278,189.682 19.644,189.499 20.002 C 189.016 20.949,189.092 21.016,189.651 20.135 C 189.917 19.715,190.236 19.336,190.359 19.292 C 190.482 19.248,190.545 19.170,190.499 19.119 C 190.452 19.067,190.283 19.098,190.122 19.188 M83.346 21.901 C 83.119 22.175,83.171 23.668,83.416 23.926 C 83.508 24.023,83.956 24.121,84.412 24.144 C 85.416 24.195,85.313 24.084,85.369 25.175 C 85.404 25.840,85.484 26.088,85.667 26.101 C 87.071 26.202,87.315 26.346,87.431 27.145 C 87.581 28.184,87.737 28.333,88.680 28.333 C 89.480 28.333,89.485 28.337,89.590 28.958 C 89.825 30.349,89.732 30.292,91.990 30.440 L 93.620 30.547 93.768 31.482 L 93.917 32.417 95.069 32.500 C 95.799 32.553,96.249 32.662,96.294 32.798 C 96.417 33.168,97.187 34.000,97.406 34.000 C 97.521 34.000,97.751 34.150,97.917 34.333 C 98.145 34.586,98.430 34.667,99.088 34.667 L 99.958 34.667 100.039 35.510 C 100.139 36.553,100.235 36.651,101.285 36.775 L 102.128 36.875 102.212 37.619 C 102.332 38.681,102.450 38.743,104.486 38.806 L 106.290 38.862 106.391 39.710 C 106.528 40.868,106.601 40.909,108.653 40.973 L 110.457 41.028 110.554 41.851 C 110.680 42.909,110.745 43.000,111.385 43.002 C 112.439 43.007,112.599 43.128,112.763 44.048 C 112.939 45.028,113.103 45.122,114.692 45.150 C 115.711 45.168,116.833 45.968,116.833 46.677 C 116.833 47.108,117.333 47.333,118.285 47.333 C 119.072 47.333,119.100 47.351,119.421 48.042 C 119.833 48.928,120.378 49.198,121.955 49.299 L 123.167 49.377 123.167 50.239 C 123.167 51.446,123.264 51.500,125.432 51.500 C 127.411 51.500,127.581 51.571,127.386 52.315 C 127.337 52.506,127.354 52.794,127.424 52.956 C 127.495 53.118,127.535 53.325,127.513 53.417 C 127.490 53.508,127.528 53.528,127.596 53.460 C 127.664 53.392,127.820 53.420,127.943 53.522 C 128.067 53.624,128.377 53.666,128.633 53.615 C 129.279 53.486,129.435 53.636,129.547 54.494 C 129.667 55.407,129.990 55.667,131.011 55.667 C 131.788 55.667,131.791 55.669,131.894 56.312 C 132.051 57.292,133.131 57.828,134.958 57.832 L 135.833 57.833 135.833 58.570 C 135.833 59.692,135.935 59.833,136.747 59.833 C 137.986 59.833,138.413 59.987,138.648 60.518 C 138.767 60.787,139.101 61.129,139.391 61.276 C 139.680 61.424,139.977 61.647,140.050 61.773 C 140.151 61.944,140.666 62.000,142.157 62.000 C 144.269 62.000,144.580 62.162,144.228 63.081 C 143.997 63.682,144.474 64.123,145.375 64.143 C 146.384 64.166,146.339 64.129,146.353 64.935 C 146.375 66.122,146.417 66.167,147.511 66.167 L 148.500 66.167 148.500 67.077 C 148.500 68.253,148.653 68.333,150.906 68.333 L 152.667 68.333 152.667 69.240 C 152.667 70.290,152.705 70.327,153.924 70.453 C 154.741 70.537,154.849 70.594,154.935 70.982 C 155.139 71.904,155.209 72.024,155.639 72.189 C 155.884 72.282,156.731 72.401,157.523 72.453 L 158.962 72.547 159.041 73.367 C 159.156 74.566,159.356 74.643,162.375 74.662 L 163.167 74.667 163.167 75.344 C 163.167 76.452,163.370 76.667,164.423 76.667 L 165.333 76.667 165.336 77.458 C 165.340 78.711,165.391 78.742,167.577 78.806 L 169.500 78.862 169.500 79.768 C 169.500 80.796,169.750 81.000,171.011 81.000 C 171.665 81.000,171.667 81.002,171.667 81.667 C 171.667 82.817,172.010 83.000,174.167 83.000 L 176.000 83.000 176.000 83.546 C 176.000 84.283,176.397 84.801,177.046 84.913 C 178.245 85.120,178.448 85.142,179.187 85.154 L 179.958 85.167 180.039 86.010 C 180.148 87.150,180.212 87.187,182.189 87.246 C 183.139 87.274,183.973 87.305,184.042 87.315 C 184.110 87.325,184.167 87.558,184.167 87.833 L 184.167 88.333 186.917 88.333 L 189.667 88.333 189.667 87.836 C 189.667 87.168,189.054 86.922,187.007 86.768 C 185.300 86.640,185.000 86.508,185.000 85.889 C 185.000 85.127,184.312 84.669,183.133 84.647 C 181.384 84.614,181.114 84.507,180.868 83.748 C 180.559 82.799,180.185 82.496,179.147 82.355 C 178.091 82.212,177.835 82.085,177.828 81.698 C 177.819 81.210,177.454 80.904,176.129 80.276 C 175.222 79.847,174.769 79.525,174.595 79.190 C 174.355 78.726,173.891 78.456,172.958 78.238 C 172.518 78.135,172.079 77.765,171.614 77.107 C 171.491 76.934,170.669 76.558,169.744 76.252 C 168.249 75.758,168.065 75.651,167.789 75.120 C 167.494 74.551,166.046 74.000,164.845 74.000 C 164.374 74.000,163.978 73.597,163.855 72.995 C 163.726 72.367,163.368 72.113,162.205 71.827 C 161.672 71.696,161.400 71.506,161.122 71.067 C 160.848 70.637,160.388 70.308,159.377 69.821 C 158.561 69.427,157.857 68.960,157.641 68.667 C 157.407 68.351,156.973 68.077,156.430 67.901 C 155.905 67.732,155.299 67.355,154.833 66.909 C 154.257 66.357,153.758 66.082,152.676 65.720 C 151.386 65.289,151.241 65.195,150.926 64.589 C 150.676 64.108,150.448 63.901,150.083 63.827 C 149.808 63.771,149.358 63.603,149.083 63.453 C 148.808 63.303,148.377 63.095,148.124 62.990 C 147.869 62.885,147.620 62.623,147.565 62.403 C 147.442 61.912,146.541 61.334,145.897 61.332 C 145.369 61.331,144.593 60.870,144.567 60.542 C 144.557 60.427,144.539 60.227,144.525 60.096 C 144.511 59.966,144.219 59.768,143.875 59.657 C 142.702 59.277,141.584 58.634,140.992 57.999 C 140.644 57.626,140.129 57.288,139.742 57.179 C 138.973 56.964,138.699 56.766,138.219 56.081 C 137.917 55.651,137.668 55.536,136.475 55.280 C 134.526 54.861,134.369 54.778,134.243 54.103 C 134.126 53.479,133.910 53.328,133.000 53.232 C 130.906 53.011,130.639 52.876,130.403 51.917 C 130.246 51.278,129.578 50.697,128.926 50.633 C 128.523 50.594,128.346 50.445,128.074 49.917 C 127.805 49.395,127.572 49.196,126.999 49.000 C 126.597 48.862,125.927 48.420,125.509 48.016 C 124.720 47.253,124.095 46.919,122.847 46.594 C 122.097 46.398,121.956 46.263,121.674 45.467 C 121.553 45.124,121.344 44.973,120.799 44.835 C 119.741 44.566,119.389 44.348,118.923 43.676 C 118.507 43.076,118.294 42.972,116.152 42.336 C 115.683 42.197,115.485 42.007,115.235 41.457 C 114.941 40.809,114.840 40.734,113.917 40.492 C 112.606 40.148,111.667 39.687,111.667 39.390 C 111.667 39.045,110.886 38.372,110.065 38.009 C 109.629 37.816,109.256 37.501,109.094 37.188 C 108.899 36.811,108.648 36.632,108.124 36.497 C 107.114 36.238,105.644 35.463,105.431 35.078 C 105.184 34.630,105.081 34.567,103.773 34.064 C 102.913 33.733,102.554 33.494,102.322 33.101 C 102.066 32.668,101.744 32.484,100.433 32.023 C 99.024 31.528,98.842 31.417,98.750 31.001 C 98.617 30.393,98.241 30.073,97.397 29.848 C 96.623 29.642,95.833 29.089,95.833 28.752 C 95.833 28.629,95.252 28.220,94.542 27.842 C 93.831 27.465,93.063 26.949,92.833 26.696 C 92.302 26.109,91.758 25.782,90.902 25.534 C 90.393 25.386,90.141 25.187,89.904 24.748 C 89.614 24.210,88.937 23.838,88.240 23.834 C 88.142 23.834,87.914 23.702,87.732 23.542 C 87.550 23.381,87.179 23.135,86.909 22.994 C 86.638 22.854,86.393 22.578,86.365 22.382 C 86.271 21.733,83.811 21.341,83.346 21.901 M188.875 22.917 C 188.877 23.283,188.911 23.414,188.951 23.206 C 188.991 22.999,188.990 22.699,188.948 22.540 C 188.906 22.380,188.874 22.550,188.875 22.917 M189.167 27.833 L 189.104 29.917 189.010 28.417 L 188.917 26.917 188.789 28.250 C 188.379 32.537,188.467 34.263,189.111 34.586 C 189.297 34.679,189.641 34.979,189.877 35.253 C 190.112 35.526,190.346 35.709,190.397 35.659 C 190.616 35.440,190.756 32.224,190.659 29.642 C 190.618 28.548,190.351 27.919,190.316 28.833 L 190.293 29.417 190.152 28.750 C 190.074 28.383,189.943 27.633,189.860 27.083 L 189.709 26.083 189.688 27.111 C 189.653 28.813,189.426 28.899,189.323 27.250 L 189.230 25.750 189.167 27.833 M242.458 28.096 C 242.390 28.165,242.333 28.737,242.333 29.366 C 242.333 30.655,242.080 31.395,241.438 31.987 C 240.874 32.507,240.772 33.800,241.318 33.508 C 241.817 33.241,242.286 32.342,242.496 31.250 C 242.699 30.195,242.671 27.881,242.458 28.096 M189.090 32.927 C 189.262 33.397,189.526 33.713,189.960 33.964 C 190.303 34.163,190.471 34.327,190.333 34.329 C 189.414 34.341,188.619 33.076,188.692 31.718 L 188.717 31.250 188.780 31.750 C 188.815 32.025,188.954 32.554,189.090 32.927 M190.555 37.583 C 190.555 38.225,190.586 38.467,190.622 38.121 C 190.658 37.775,190.657 37.250,190.620 36.955 C 190.583 36.659,190.554 36.942,190.555 37.583 M240.346 36.685 C 240.339 36.833,240.147 37.229,239.918 37.565 C 239.577 38.068,239.558 38.147,239.812 38.011 C 240.172 37.819,240.573 36.948,240.447 36.633 C 240.387 36.484,240.356 36.500,240.346 36.685 M240.795 37.503 C 240.724 38.242,240.618 38.434,239.873 39.159 C 239.387 39.633,238.984 40.194,238.920 40.486 L 238.809 40.991 239.587 40.757 C 240.016 40.628,240.386 40.499,240.410 40.470 C 240.690 40.135,240.854 39.431,240.943 38.175 C 241.055 36.598,240.935 36.051,240.795 37.503 M191.599 38.944 C 191.865 39.326,192.214 39.720,192.375 39.821 C 192.916 40.159,192.672 39.741,191.890 38.993 L 191.114 38.250 191.599 38.944 M190.682 39.530 C 190.665 40.393,190.958 40.832,191.554 40.836 C 192.408 40.841,192.667 41.017,192.667 41.592 C 192.667 42.536,192.930 43.002,193.454 42.987 C 193.715 42.979,193.807 42.934,193.667 42.882 C 193.141 42.688,192.833 42.266,192.833 41.738 C 192.833 40.944,192.680 40.667,192.241 40.667 C 191.705 40.667,191.047 40.034,190.856 39.333 L 190.697 38.750 190.682 39.530 M238.696 41.593 C 238.654 42.321,238.319 42.692,237.570 42.836 L 236.917 42.962 237.688 42.981 C 238.645 43.005,238.875 42.759,238.789 41.804 C 238.744 41.296,238.716 41.234,238.696 41.593 M236.655 44.246 C 236.609 44.564,236.434 44.818,236.167 44.952 C 235.764 45.155,235.763 45.162,236.119 45.164 C 236.548 45.167,236.882 44.645,236.791 44.116 C 236.739 43.814,236.715 43.837,236.655 44.246 M194.833 44.513 C 194.833 44.900,195.186 45.169,195.658 45.144 C 196.048 45.123,196.053 45.115,195.710 45.049 C 195.504 45.010,195.223 44.816,195.085 44.618 C 194.906 44.363,194.833 44.332,194.833 44.513 M196.879 45.833 C 196.879 46.246,196.911 46.415,196.951 46.208 C 196.991 46.002,196.991 45.665,196.951 45.458 C 196.911 45.252,196.879 45.421,196.879 45.833 M197.333 45.982 C 197.333 46.140,198.148 46.916,198.213 46.820 C 198.239 46.782,198.052 46.549,197.797 46.302 C 197.542 46.056,197.333 45.912,197.333 45.982 M234.500 46.377 C 234.500 46.523,234.382 46.761,234.238 46.905 C 234.003 47.140,234.002 47.167,234.235 47.167 C 234.498 47.167,234.793 46.404,234.603 46.214 C 234.547 46.158,234.500 46.231,234.500 46.377 M198.265 47.287 C 198.931 47.348,198.951 47.368,199.099 48.130 C 199.278 49.052,199.693 49.336,200.833 49.314 L 201.583 49.300 200.850 49.070 C 199.966 48.793,199.567 48.457,199.418 47.864 C 199.274 47.287,199.061 47.166,198.250 47.198 L 197.583 47.225 198.265 47.287 M200.036 47.517 C 200.860 48.336,201.684 49.000,201.876 49.000 C 201.985 49.000,201.906 48.882,201.701 48.739 C 201.496 48.595,201.221 48.220,201.089 47.906 C 200.932 47.528,200.738 47.333,200.522 47.333 C 200.342 47.333,200.068 47.285,199.914 47.226 C 199.728 47.154,199.769 47.252,200.036 47.517 M232.960 47.285 C 233.168 47.324,233.468 47.323,233.627 47.281 C 233.786 47.239,233.617 47.207,233.250 47.209 C 232.883 47.211,232.753 47.245,232.960 47.285 M232.145 47.833 C 231.818 48.568,231.552 48.787,230.643 49.072 L 229.917 49.300 230.697 49.317 C 232.140 49.347,232.616 48.920,232.466 47.728 L 232.405 47.250 232.145 47.833 M179.507 48.517 C 179.620 48.789,179.664 49.058,179.606 49.116 C 179.548 49.175,179.500 49.107,179.500 48.967 C 179.500 48.827,179.345 48.514,179.155 48.273 C 178.921 47.975,178.889 47.865,179.057 47.929 C 179.192 47.981,179.395 48.246,179.507 48.517 M205.398 50.059 C 205.498 51.299,205.692 51.407,207.878 51.441 L 209.750 51.470 208.222 51.346 C 206.423 51.201,205.971 50.964,205.599 49.965 L 205.332 49.250 205.398 50.059 M206.697 49.913 C 207.310 50.483,208.394 50.894,209.750 51.071 C 210.117 51.119,209.892 51.023,209.250 50.859 C 207.919 50.517,207.221 50.187,206.765 49.684 C 206.591 49.491,206.366 49.335,206.266 49.338 C 206.165 49.340,206.360 49.599,206.697 49.913 M225.913 49.461 C 225.820 49.528,225.651 49.794,225.537 50.051 C 225.262 50.677,224.069 51.197,222.583 51.339 L 221.417 51.451 222.750 51.466 C 225.444 51.495,225.922 51.305,226.144 50.118 C 226.288 49.343,226.246 49.221,225.913 49.461 M211.208 51.282 C 211.369 51.323,211.631 51.323,211.792 51.282 C 211.952 51.240,211.821 51.205,211.500 51.205 C 211.179 51.205,211.048 51.240,211.208 51.282 M248.945 54.351 C 248.532 54.569,248.221 54.896,248.061 55.279 C 247.925 55.604,247.772 55.828,247.722 55.778 C 247.543 55.598,248.256 54.416,248.667 54.212 C 249.368 53.863,249.626 53.992,248.945 54.351 M190.087 59.012 C 190.148 59.203,190.153 59.403,190.099 59.457 C 190.044 59.511,190.000 59.454,190.000 59.330 C 190.000 59.206,189.831 58.921,189.625 58.696 L 189.250 58.288 189.614 58.477 C 189.814 58.581,190.027 58.822,190.087 59.012 " stroke="none" fill="#074d25" fill-rule="evenodd"></path><path id="path2" d="M79.208 1.114 C 78.915 1.227,78.948 1.667,79.250 1.667 C 79.387 1.667,79.500 1.746,79.500 1.843 C 79.500 1.940,79.425 1.973,79.333 1.917 C 79.242 1.860,79.157 1.931,79.146 2.073 C 79.134 2.216,79.106 2.408,79.083 2.500 C 79.060 2.592,79.032 2.779,79.021 2.917 C 79.003 3.131,78.439 3.167,75.042 3.169 C 70.135 3.172,70.595 2.857,70.533 6.259 C 70.475 9.483,70.482 9.500,71.770 9.500 L 72.667 9.500 72.667 10.561 C 72.667 11.763,73.002 12.371,73.789 12.593 C 74.482 12.788,74.489 12.790,74.648 12.813 C 74.729 12.824,75.166 13.088,75.617 13.398 C 76.069 13.709,76.809 14.154,77.261 14.388 C 77.713 14.622,78.346 15.047,78.667 15.332 C 78.987 15.618,79.775 16.161,80.417 16.540 C 81.058 16.918,81.870 17.517,82.221 17.870 C 82.572 18.224,83.135 18.624,83.471 18.759 C 83.829 18.902,84.254 19.263,84.493 19.627 C 84.718 19.970,84.928 20.285,84.960 20.328 C 84.991 20.371,85.632 20.605,86.383 20.849 C 87.641 21.257,87.784 21.350,88.170 22.008 C 88.531 22.624,88.765 22.795,89.845 23.237 C 90.535 23.519,91.358 23.948,91.675 24.190 C 91.991 24.432,92.700 24.855,93.250 25.131 C 94.217 25.616,95.283 26.330,96.725 27.458 C 97.105 27.756,97.701 28.206,98.048 28.458 C 98.395 28.710,99.257 29.354,99.964 29.889 C 100.671 30.424,101.625 31.031,102.083 31.237 C 102.542 31.443,103.260 31.909,103.680 32.273 C 104.100 32.636,105.037 33.242,105.764 33.620 C 106.490 33.998,107.263 34.498,107.483 34.731 C 107.702 34.965,108.264 35.281,108.732 35.434 C 110.091 35.878,110.856 36.318,111.782 37.188 C 112.257 37.634,112.724 38.000,112.818 38.000 C 112.912 38.000,113.235 38.211,113.536 38.469 C 113.837 38.727,114.435 39.140,114.865 39.386 C 115.294 39.633,115.922 40.172,116.259 40.583 C 116.772 41.210,117.051 41.384,117.987 41.663 C 119.158 42.011,119.438 42.215,120.048 43.160 C 120.328 43.593,120.691 43.842,121.509 44.160 C 122.108 44.393,122.860 44.787,123.182 45.036 C 123.503 45.285,124.340 45.750,125.040 46.069 C 125.746 46.390,126.432 46.829,126.578 47.051 C 126.723 47.272,127.453 47.782,128.202 48.185 C 128.951 48.587,130.069 49.367,130.686 49.917 C 132.731 51.737,133.078 51.995,133.750 52.202 C 134.137 52.322,134.731 52.725,135.167 53.166 C 136.019 54.028,136.348 54.208,137.750 54.585 C 138.403 54.761,138.980 55.059,139.413 55.444 C 139.777 55.769,140.677 56.336,141.413 56.705 C 142.148 57.074,143.012 57.577,143.333 57.824 C 143.654 58.071,144.254 58.400,144.667 58.556 C 145.079 58.712,145.754 59.100,146.167 59.417 C 146.579 59.735,147.329 60.269,147.833 60.603 C 148.337 60.938,149.005 61.508,149.317 61.870 C 149.628 62.232,150.290 62.721,150.788 62.956 C 151.286 63.192,151.916 63.664,152.192 64.006 C 152.550 64.451,152.865 64.657,153.304 64.729 C 154.665 64.954,155.188 65.201,155.960 65.985 C 156.530 66.563,157.051 66.895,157.829 67.177 C 158.423 67.393,159.173 67.808,159.497 68.101 C 159.821 68.393,160.685 68.947,161.418 69.330 C 162.151 69.714,162.938 70.198,163.167 70.405 C 163.396 70.613,163.741 70.887,163.933 71.016 C 164.126 71.145,164.717 71.641,165.247 72.119 C 165.948 72.751,166.511 73.087,167.314 73.354 C 168.079 73.608,168.595 73.907,169.000 74.333 C 169.549 74.911,170.476 75.450,171.140 75.578 C 171.770 75.700,172.602 76.143,172.992 76.567 C 173.217 76.811,174.019 77.307,174.775 77.669 C 175.531 78.032,176.397 78.543,176.700 78.807 C 177.002 79.070,177.787 79.553,178.443 79.880 C 179.639 80.477,179.827 80.611,181.417 82.000 C 181.889 82.412,182.458 82.903,182.681 83.089 C 182.904 83.276,183.635 83.601,184.305 83.813 C 184.975 84.024,185.762 84.403,186.053 84.654 C 186.886 85.372,187.463 85.633,189.244 86.096 C 191.296 86.630,191.833 86.975,191.833 87.761 L 191.833 88.333 217.167 88.333 L 242.500 88.333 242.500 87.748 C 242.500 87.056,243.017 86.662,244.500 86.227 C 246.035 85.776,246.340 85.634,247.050 85.041 C 247.426 84.727,248.262 84.206,248.908 83.882 C 249.555 83.558,250.461 82.939,250.922 82.505 C 251.383 82.072,252.058 81.581,252.422 81.415 C 252.786 81.249,253.308 80.951,253.583 80.754 C 253.858 80.556,254.596 80.175,255.224 79.906 C 255.851 79.637,256.724 79.110,257.164 78.735 C 257.604 78.361,258.441 77.879,259.024 77.665 C 259.606 77.451,260.387 77.001,260.758 76.665 C 261.153 76.308,261.949 75.861,262.675 75.589 C 263.576 75.252,264.146 74.903,264.750 74.320 C 265.208 73.877,266.019 73.323,266.552 73.088 C 267.085 72.854,267.910 72.370,268.386 72.013 C 268.861 71.656,269.587 71.194,270.000 70.985 C 270.412 70.777,271.028 70.361,271.367 70.060 C 271.707 69.760,272.306 69.351,272.697 69.151 C 273.089 68.951,273.674 68.578,273.997 68.321 C 274.319 68.065,275.175 67.543,275.899 67.161 C 276.623 66.780,277.396 66.253,277.618 65.989 C 278.000 65.535,278.416 65.366,280.419 64.849 C 280.892 64.727,281.271 64.457,281.715 63.926 C 282.060 63.513,282.697 62.971,283.130 62.721 C 283.563 62.471,284.179 62.063,284.500 61.814 C 284.821 61.566,285.678 61.049,286.405 60.666 C 287.132 60.282,287.871 59.786,288.047 59.562 C 288.222 59.339,288.741 58.966,289.198 58.734 C 289.656 58.502,290.342 58.031,290.723 57.687 C 291.105 57.343,291.861 56.848,292.404 56.588 C 292.946 56.327,293.659 55.872,293.987 55.577 C 294.315 55.281,294.949 54.916,295.395 54.765 C 296.538 54.378,296.804 54.218,297.777 53.334 C 298.337 52.824,298.917 52.473,299.441 52.327 C 299.907 52.196,300.526 51.845,300.914 51.491 C 301.282 51.155,301.883 50.689,302.250 50.454 C 302.617 50.220,303.217 49.763,303.583 49.438 C 303.950 49.114,304.655 48.601,305.149 48.299 C 305.644 47.997,306.322 47.511,306.657 47.220 C 306.992 46.928,307.841 46.427,308.545 46.106 C 309.248 45.786,310.108 45.295,310.456 45.016 C 310.803 44.736,311.563 44.352,312.144 44.161 C 313.243 43.800,313.569 43.566,314.058 42.786 C 314.218 42.531,314.756 42.129,315.255 41.893 C 315.753 41.657,316.481 41.184,316.872 40.842 C 317.669 40.146,319.536 38.865,320.968 38.031 C 321.490 37.727,322.217 37.187,322.583 36.830 C 322.950 36.474,323.737 35.959,324.333 35.687 C 324.929 35.415,325.736 34.892,326.127 34.524 C 326.644 34.038,327.167 33.754,328.044 33.483 C 328.990 33.190,329.394 32.959,329.917 32.410 C 330.338 31.967,330.904 31.596,331.455 31.400 C 332.051 31.189,332.600 30.812,333.189 30.212 C 333.663 29.729,334.110 29.333,334.183 29.333 C 334.255 29.333,334.825 28.894,335.449 28.356 C 336.073 27.819,337.015 27.104,337.542 26.768 C 338.069 26.432,338.500 26.096,338.500 26.023 C 338.500 25.853,339.002 25.599,340.215 25.157 C 340.746 24.963,341.510 24.518,341.915 24.169 C 342.319 23.819,343.047 23.403,343.533 23.244 C 344.879 22.804,345.262 22.564,345.636 21.931 C 345.896 21.491,346.293 21.204,347.281 20.742 C 347.997 20.408,348.644 20.028,348.718 19.898 C 348.959 19.476,349.736 18.818,350.405 18.470 C 350.765 18.282,351.178 17.996,351.322 17.834 C 351.466 17.671,351.996 17.326,352.500 17.067 C 353.559 16.522,354.770 15.736,355.250 15.282 C 355.433 15.108,356.022 14.752,356.557 14.490 C 357.093 14.228,357.860 13.710,358.262 13.340 C 358.664 12.970,359.088 12.663,359.205 12.658 C 359.321 12.653,359.829 12.353,360.333 11.992 C 360.837 11.632,361.572 11.129,361.967 10.876 C 362.361 10.624,362.916 10.267,363.200 10.083 C 364.340 9.348,364.654 6.122,363.709 4.857 C 363.440 4.495,361.897 3.822,360.791 3.582 C 359.562 3.316,309.279 3.106,307.917 3.361 C 307.550 3.430,306.125 3.523,304.750 3.568 C 300.659 3.703,298.323 4.300,297.106 5.521 C 296.751 5.876,296.168 6.332,295.810 6.533 C 295.444 6.739,294.930 7.256,294.636 7.715 C 294.348 8.163,294.019 8.624,293.905 8.738 C 293.790 8.853,293.460 9.331,293.170 9.802 C 292.865 10.298,292.383 10.805,292.026 11.005 C 291.642 11.221,291.254 11.645,290.997 12.131 C 290.769 12.559,290.321 13.084,290.000 13.298 C 289.437 13.673,288.889 14.571,288.494 15.767 C 288.388 16.091,288.011 16.574,287.629 16.878 C 287.147 17.262,286.774 17.801,286.331 18.750 C 285.989 19.483,285.468 20.308,285.174 20.583 C 284.879 20.858,284.390 21.421,284.085 21.833 C 283.781 22.246,282.854 23.293,282.024 24.160 C 281.195 25.027,280.346 26.068,280.137 26.474 C 279.926 26.884,279.473 27.400,279.117 27.636 C 278.764 27.869,278.337 28.333,278.167 28.667 C 277.996 29.001,277.533 29.541,277.137 29.868 C 276.603 30.308,276.313 30.734,276.016 31.513 C 275.737 32.243,275.317 32.884,274.641 33.611 C 274.105 34.187,273.667 34.770,273.667 34.906 C 273.667 35.278,271.696 37.311,270.984 37.675 C 270.642 37.849,270.076 38.341,269.726 38.768 C 269.377 39.195,268.810 39.721,268.468 39.937 C 268.051 40.200,267.705 40.626,267.424 41.220 C 267.183 41.728,266.817 42.208,266.569 42.341 C 266.321 42.474,265.919 42.999,265.635 43.564 C 265.016 44.788,262.158 47.779,260.811 48.610 C 260.293 48.931,259.626 49.495,259.329 49.864 C 259.032 50.233,258.554 50.634,258.266 50.754 C 257.665 51.005,257.255 51.424,257.094 51.950 C 257.033 52.152,256.659 52.640,256.263 53.034 C 255.868 53.428,255.236 54.297,254.860 54.965 C 253.930 56.618,251.970 58.526,250.536 59.176 C 249.835 59.494,249.232 59.925,248.800 60.415 C 248.436 60.828,248.038 61.167,247.915 61.167 C 247.622 61.167,246.667 61.975,246.666 62.223 C 246.665 62.432,245.721 63.516,245.324 63.765 C 245.190 63.848,244.860 64.217,244.588 64.583 C 243.966 65.425,241.729 67.667,241.511 67.667 C 241.422 67.667,240.868 68.135,240.280 68.708 C 238.960 69.997,237.499 71.160,236.871 71.425 C 236.417 71.616,235.167 72.913,235.167 73.194 C 235.167 73.343,233.812 74.056,233.167 74.246 C 232.938 74.314,232.450 74.658,232.083 75.011 C 231.107 75.952,229.459 77.046,227.721 77.907 C 226.880 78.324,226.088 78.769,225.960 78.897 C 225.484 79.373,224.382 79.798,223.333 79.908 C 221.175 80.136,220.725 80.192,219.210 80.427 C 217.220 80.737,215.934 80.727,215.000 80.396 C 214.494 80.217,213.408 80.102,211.667 80.043 C 208.918 79.950,207.970 79.728,206.917 78.927 C 206.642 78.718,205.967 78.318,205.417 78.039 C 204.867 77.759,204.192 77.313,203.917 77.047 C 203.642 76.781,203.127 76.388,202.772 76.173 C 202.418 75.958,201.799 75.497,201.397 75.149 C 200.994 74.801,200.170 74.280,199.565 73.991 C 198.809 73.630,198.380 73.308,198.191 72.959 C 197.856 72.339,197.025 71.500,196.747 71.500 C 196.634 71.500,196.231 71.162,195.851 70.750 C 195.471 70.337,194.880 69.820,194.538 69.601 C 194.196 69.381,193.565 68.875,193.135 68.476 C 192.706 68.077,191.712 67.225,190.927 66.583 C 190.143 65.942,189.294 65.120,189.042 64.758 C 188.790 64.395,188.297 63.838,187.946 63.519 C 187.596 63.200,187.163 62.654,186.985 62.305 C 186.762 61.866,186.417 61.546,185.872 61.269 C 185.438 61.049,184.933 60.701,184.750 60.496 C 184.567 60.290,184.107 59.926,183.727 59.686 C 183.348 59.446,182.379 58.650,181.574 57.917 C 179.964 56.451,180.020 56.510,178.883 55.074 C 177.814 53.725,176.439 52.156,175.395 51.096 C 174.925 50.619,174.417 49.990,174.266 49.698 C 174.097 49.370,173.688 49.014,173.195 48.764 C 172.462 48.393,170.156 46.238,169.789 45.581 C 169.702 45.427,169.284 44.948,168.858 44.516 C 167.394 43.031,166.617 42.082,166.317 41.412 C 166.009 40.723,165.589 40.272,164.799 39.782 C 164.552 39.628,164.153 39.168,163.913 38.759 C 163.673 38.350,163.341 37.972,163.174 37.919 C 163.007 37.866,162.364 37.375,161.744 36.828 C 161.124 36.281,160.557 35.833,160.482 35.833 C 160.408 35.833,160.143 35.477,159.892 35.042 C 159.642 34.606,159.095 33.911,158.677 33.496 C 158.161 32.985,157.767 32.368,157.451 31.579 C 157.124 30.761,156.819 30.293,156.423 30.000 C 156.114 29.771,155.626 29.227,155.340 28.791 C 155.053 28.355,154.630 27.874,154.399 27.723 C 154.167 27.571,153.749 26.990,153.469 26.432 C 153.189 25.874,152.624 25.083,152.213 24.676 C 151.803 24.268,151.274 23.668,151.037 23.342 C 150.801 23.017,150.015 22.163,149.290 21.446 C 148.282 20.448,147.832 19.848,147.379 18.893 C 146.992 18.079,146.567 17.468,146.157 17.139 C 145.812 16.862,145.295 16.195,145.009 15.659 C 144.723 15.122,144.198 14.315,143.842 13.865 C 143.487 13.415,142.965 12.643,142.682 12.148 C 142.364 11.593,141.886 11.062,141.428 10.756 C 141.021 10.485,140.605 10.080,140.504 9.858 C 140.402 9.636,140.131 9.305,139.900 9.124 C 139.669 8.942,139.251 8.387,138.970 7.890 C 138.690 7.392,138.271 6.857,138.040 6.701 C 137.809 6.545,137.199 6.036,136.685 5.571 C 135.504 4.502,134.247 4.022,131.917 3.752 C 131.458 3.699,130.707 3.549,130.247 3.418 C 129.551 3.220,127.672 3.192,118.997 3.250 C 105.160 3.342,84.789 3.309,82.234 3.191 C 81.665 3.164,81.097 2.190,81.150 1.333 C 81.173 0.970,81.153 0.954,80.996 1.208 C 80.898 1.369,80.689 1.498,80.533 1.495 C 80.272 1.490,80.273 1.472,80.545 1.266 C 80.848 1.035,79.739 0.909,79.208 1.114 M79.903 1.268 C 80.048 1.323,80.167 1.445,80.167 1.538 C 80.167 1.638,80.067 1.625,79.924 1.506 C 79.790 1.395,79.603 1.353,79.507 1.412 C 79.412 1.471,79.333 1.440,79.333 1.343 C 79.333 1.144,79.517 1.120,79.903 1.268 M79.707 2.277 C 79.592 2.324,79.540 2.430,79.591 2.512 C 79.642 2.595,79.568 2.618,79.426 2.564 C 79.104 2.440,79.255 2.162,79.635 2.180 C 79.810 2.188,79.837 2.225,79.707 2.277 " stroke="none" fill="#0e300b" fill-rule="evenodd"></path><path id="path3" d="M212.667 0.483 L 212.667 0.967 210.458 1.057 C 209.244 1.106,207.419 1.172,206.404 1.202 C 204.229 1.267,203.778 1.469,203.500 2.500 L 203.320 3.167 202.202 3.177 C 199.681 3.199,199.255 3.396,199.069 4.625 C 198.964 5.321,198.950 5.333,198.303 5.333 C 197.276 5.333,197.055 5.533,196.924 6.579 L 196.809 7.500 196.113 7.503 C 195.130 7.506,194.941 7.683,194.839 8.699 L 194.750 9.583 194.018 9.681 C 193.585 9.739,193.193 9.905,193.059 10.088 C 192.843 10.383,192.816 10.572,192.770 12.074 C 192.753 12.630,192.629 12.844,191.957 13.473 C 191.521 13.881,191.092 14.448,191.005 14.733 C 190.875 15.159,190.864 15.104,190.942 14.417 C 191.064 13.339,191.458 12.646,192.125 12.333 C 192.781 12.027,192.834 11.756,192.208 11.910 C 190.971 12.214,190.764 12.756,190.568 16.188 L 190.457 18.127 189.799 18.324 C 188.640 18.671,188.600 18.901,188.563 25.333 C 188.539 29.446,188.569 30.500,188.677 29.333 C 188.900 26.916,188.945 26.792,189.009 28.417 L 189.068 29.917 189.167 27.833 C 189.264 25.797,189.267 25.784,189.302 27.250 C 189.344 28.996,189.647 28.931,189.686 27.167 L 189.709 26.083 189.860 27.083 C 189.943 27.633,190.074 28.383,190.152 28.750 L 190.293 29.417 190.316 28.833 C 190.331 28.440,190.385 28.323,190.481 28.475 C 190.641 28.728,190.705 29.899,190.672 32.000 C 190.558 39.493,190.772 40.667,192.255 40.667 C 192.681 40.667,192.833 40.949,192.833 41.738 C 192.833 42.430,193.274 42.835,194.154 42.953 C 194.808 43.040,194.833 43.067,194.833 43.652 C 194.833 44.572,195.202 44.971,196.173 45.100 L 197.000 45.210 197.000 45.912 C 197.000 46.794,197.374 47.166,198.263 47.169 C 199.050 47.172,199.249 47.287,199.414 47.833 C 199.711 48.819,201.027 49.372,202.979 49.331 C 205.509 49.278,205.424 49.257,205.647 50.001 C 206.061 51.383,207.487 51.565,217.083 51.461 C 224.122 51.385,224.940 51.248,225.500 50.047 C 225.827 49.346,225.932 49.315,227.986 49.320 C 230.569 49.325,232.167 48.719,232.167 47.733 C 232.167 47.425,232.708 47.167,233.364 47.164 C 234.226 47.160,234.667 46.622,234.667 45.572 C 234.667 45.226,234.746 45.166,235.208 45.164 C 236.192 45.160,236.559 44.843,236.750 43.832 C 236.918 42.948,236.941 42.918,237.553 42.819 C 238.399 42.681,238.482 42.569,238.768 41.187 C 238.991 40.112,239.097 39.916,239.852 39.180 C 240.780 38.276,241.095 37.101,240.971 35.008 C 240.920 34.141,240.941 34.080,241.301 34.058 C 242.738 33.970,242.917 33.033,242.917 25.583 C 242.917 18.386,242.957 18.688,241.838 17.521 C 241.040 16.689,241.000 16.604,241.000 15.733 C 241.000 13.687,240.244 12.000,239.329 12.000 C 238.955 12.000,238.833 11.673,238.833 10.665 C 238.833 10.221,238.739 9.758,238.623 9.637 C 238.507 9.516,238.321 9.208,238.208 8.954 C 238.095 8.699,237.739 8.335,237.417 8.145 C 237.061 7.935,236.793 7.626,236.734 7.358 C 236.388 5.786,236.324 5.705,235.299 5.530 C 234.629 5.415,234.585 5.372,234.452 4.702 C 234.247 3.662,233.078 3.167,230.834 3.167 C 230.123 3.167,230.041 3.123,229.796 2.610 C 229.192 1.343,228.414 1.182,222.246 1.057 L 216.833 0.946 216.833 0.473 L 216.833 0.000 214.750 0.000 L 212.667 0.000 212.667 0.483 M219.247 7.175 C 219.887 7.270,221.237 7.334,222.247 7.317 C 225.689 7.259,226.297 7.315,226.745 7.730 C 226.968 7.937,227.910 8.434,228.838 8.835 C 230.312 9.472,230.566 9.643,230.839 10.178 C 231.011 10.515,231.380 10.983,231.659 11.218 C 231.938 11.453,232.167 11.728,232.167 11.828 C 232.167 11.929,232.282 12.187,232.422 12.402 C 232.563 12.616,232.706 12.932,232.740 13.104 C 232.846 13.639,233.703 15.500,233.843 15.500 C 234.014 15.500,234.986 18.013,234.976 18.431 C 234.967 18.840,235.079 19.272,235.384 20.000 C 235.520 20.324,235.628 21.102,235.628 21.750 C 235.629 24.583,235.879 28.652,236.103 29.465 C 236.335 30.306,236.330 30.370,235.986 30.853 C 235.566 31.443,235.317 32.293,235.065 34.000 C 234.932 34.899,234.680 35.416,234.053 36.079 C 233.609 36.547,233.148 37.721,233.148 38.387 C 233.148 38.789,232.626 39.630,232.186 39.939 C 231.992 40.074,231.833 40.327,231.833 40.499 C 231.833 41.042,230.706 41.937,229.728 42.172 C 229.147 42.311,228.752 42.516,228.592 42.760 C 228.433 43.003,228.100 43.177,227.648 43.253 C 226.940 43.373,226.429 43.559,224.893 44.257 C 224.421 44.471,223.687 44.687,223.262 44.737 C 222.836 44.787,222.322 44.919,222.119 45.030 C 221.497 45.370,219.461 45.614,217.473 45.588 C 214.741 45.551,209.634 45.176,209.287 44.986 C 208.979 44.818,205.480 43.548,205.333 43.552 C 204.893 43.561,203.728 42.971,202.907 42.321 C 202.352 41.882,201.694 41.471,201.445 41.409 C 201.108 41.324,200.885 41.071,200.579 40.423 C 200.255 39.737,200.024 39.486,199.500 39.250 C 199.133 39.085,198.833 38.872,198.833 38.778 C 198.833 38.358,197.275 35.478,196.880 35.168 C 196.494 34.864,195.718 33.500,195.931 33.500 C 195.976 33.500,195.717 33.193,195.356 32.817 C 194.561 31.989,194.499 31.652,194.610 28.750 C 194.656 27.558,194.698 26.433,194.703 26.250 C 194.708 26.067,194.655 25.275,194.584 24.491 C 194.338 21.752,194.604 19.574,195.267 18.911 C 195.578 18.599,195.833 18.281,195.833 18.204 C 195.833 18.126,195.988 17.897,196.177 17.694 C 196.371 17.486,196.581 16.946,196.658 16.460 C 196.733 15.985,196.881 15.567,196.987 15.532 C 197.477 15.369,198.127 14.624,198.309 14.017 C 198.419 13.649,198.580 13.304,198.667 13.250 C 198.753 13.197,198.970 12.823,199.148 12.420 C 199.541 11.532,200.845 10.244,201.606 9.993 C 201.912 9.892,202.202 9.745,202.250 9.667 C 202.298 9.588,202.618 9.435,202.961 9.326 C 204.045 8.980,206.402 7.950,206.797 7.650 C 207.188 7.352,207.989 7.252,211.321 7.085 C 212.276 7.037,213.078 6.977,213.103 6.953 C 213.216 6.840,218.208 7.020,219.247 7.175 M239.378 12.944 C 239.654 13.110,240.500 14.340,240.500 14.576 C 240.500 14.667,240.383 14.574,240.240 14.369 C 240.097 14.165,239.759 13.884,239.490 13.745 C 239.143 13.566,239.000 13.368,239.000 13.069 C 239.000 12.837,238.932 12.689,238.849 12.740 C 238.766 12.792,238.740 12.670,238.793 12.471 L 238.888 12.108 239.016 12.456 C 239.087 12.648,239.250 12.868,239.378 12.944 M192.736 13.375 C 192.713 13.581,192.682 13.862,192.667 14.000 C 192.649 14.174,192.615 14.187,192.556 14.042 C 192.510 13.927,192.399 13.833,192.310 13.833 C 192.220 13.833,192.186 13.896,192.233 13.972 C 192.280 14.049,192.213 14.111,192.083 14.111 C 191.954 14.111,191.893 14.030,191.949 13.931 C 192.047 13.755,192.698 13.000,192.751 13.000 C 192.766 13.000,192.759 13.169,192.736 13.375 M190.359 19.292 C 190.236 19.336,189.917 19.715,189.651 20.135 C 189.092 21.016,189.016 20.949,189.499 20.002 C 189.820 19.372,190.325 18.926,190.499 19.119 C 190.545 19.170,190.482 19.248,190.359 19.292 M188.951 23.206 C 188.911 23.414,188.877 23.283,188.875 22.917 C 188.874 22.550,188.906 22.380,188.948 22.540 C 188.990 22.699,188.991 22.999,188.951 23.206 M242.496 31.250 C 242.286 32.342,241.817 33.241,241.318 33.508 C 240.772 33.800,240.874 32.507,241.438 31.987 C 242.080 31.395,242.333 30.655,242.333 29.366 C 242.333 28.737,242.390 28.165,242.458 28.096 C 242.671 27.881,242.699 30.195,242.496 31.250 M188.692 31.718 C 188.619 33.076,189.414 34.341,190.333 34.329 C 190.471 34.327,190.303 34.163,189.960 33.964 C 189.324 33.595,188.917 32.832,188.780 31.750 L 188.717 31.250 188.692 31.718 M240.327 37.348 C 240.214 37.622,239.982 37.920,239.812 38.011 C 239.558 38.147,239.577 38.068,239.918 37.565 C 240.147 37.229,240.339 36.833,240.346 36.685 C 240.356 36.500,240.387 36.484,240.447 36.633 C 240.494 36.753,240.441 37.074,240.327 37.348 M192.667 39.869 C 192.667 40.137,192.071 39.621,191.599 38.944 L 191.114 38.250 191.890 38.993 C 192.317 39.402,192.667 39.796,192.667 39.869 M198.213 46.820 C 198.148 46.916,197.333 46.140,197.333 45.982 C 197.333 45.912,197.542 46.056,197.797 46.302 C 198.052 46.549,198.239 46.782,198.213 46.820 M200.522 47.333 C 200.738 47.333,200.932 47.528,201.089 47.906 C 201.221 48.220,201.496 48.595,201.701 48.739 C 201.906 48.882,201.985 49.000,201.876 49.000 C 201.684 49.000,200.860 48.336,200.036 47.517 C 199.769 47.252,199.728 47.154,199.914 47.226 C 200.068 47.285,200.342 47.333,200.522 47.333 M179.155 48.273 C 179.345 48.514,179.500 48.827,179.500 48.967 C 179.500 49.107,179.548 49.175,179.606 49.116 C 179.765 48.958,179.339 48.038,179.057 47.929 C 178.889 47.865,178.921 47.975,179.155 48.273 M206.765 49.684 C 207.221 50.187,207.919 50.517,209.250 50.859 C 209.892 51.023,210.117 51.119,209.750 51.071 C 208.162 50.864,205.149 49.365,206.266 49.338 C 206.366 49.335,206.591 49.491,206.765 49.684 M211.792 51.282 C 211.631 51.323,211.369 51.323,211.208 51.282 C 211.048 51.240,211.179 51.205,211.500 51.205 C 211.821 51.205,211.952 51.240,211.792 51.282 M248.667 54.212 C 248.256 54.416,247.543 55.598,247.722 55.778 C 247.772 55.828,247.925 55.604,248.061 55.279 C 248.221 54.896,248.532 54.569,248.945 54.351 C 249.626 53.992,249.368 53.863,248.667 54.212 M189.625 58.696 C 189.831 58.921,190.000 59.206,190.000 59.330 C 190.000 59.454,190.044 59.511,190.099 59.457 C 190.281 59.275,189.981 58.668,189.614 58.477 L 189.250 58.288 189.625 58.696 " stroke="none" fill="#de7521" fill-rule="evenodd"></path><path id="path4" d="M79.333 1.343 C 79.333 1.440,79.412 1.471,79.507 1.412 C 79.603 1.353,79.790 1.395,79.924 1.506 C 80.067 1.625,80.167 1.638,80.167 1.538 C 80.167 1.373,79.790 1.167,79.486 1.167 C 79.402 1.167,79.333 1.246,79.333 1.343 M80.417 1.333 C 80.360 1.425,80.426 1.500,80.564 1.500 C 80.701 1.500,80.860 1.425,80.917 1.333 C 80.973 1.242,80.907 1.167,80.770 1.167 C 80.632 1.167,80.473 1.242,80.417 1.333 M81.141 1.426 C 81.018 2.065,81.709 3.164,82.250 3.191 C 84.710 3.309,105.155 3.342,118.997 3.250 C 127.672 3.192,129.551 3.220,130.247 3.418 C 130.707 3.549,131.458 3.699,131.917 3.752 C 134.247 4.022,135.504 4.502,136.685 5.571 C 137.199 6.036,137.809 6.545,138.040 6.701 C 138.271 6.857,138.690 7.392,138.970 7.890 C 139.251 8.387,139.669 8.942,139.900 9.124 C 140.131 9.305,140.402 9.636,140.504 9.858 C 140.605 10.080,141.021 10.485,141.428 10.756 C 141.886 11.062,142.364 11.593,142.682 12.148 C 142.965 12.643,143.487 13.415,143.842 13.865 C 144.198 14.315,144.723 15.122,145.009 15.659 C 145.295 16.195,145.812 16.862,146.157 17.139 C 146.567 17.468,146.992 18.079,147.379 18.893 C 147.832 19.848,148.282 20.448,149.290 21.446 C 150.015 22.163,150.801 23.017,151.037 23.342 C 151.274 23.668,151.803 24.268,152.213 24.676 C 152.624 25.083,153.189 25.874,153.469 26.432 C 153.749 26.990,154.167 27.571,154.399 27.723 C 154.630 27.874,155.053 28.355,155.340 28.791 C 155.626 29.227,156.114 29.771,156.423 30.000 C 156.819 30.293,157.124 30.761,157.451 31.579 C 157.767 32.368,158.161 32.985,158.677 33.496 C 159.095 33.911,159.642 34.606,159.892 35.042 C 160.143 35.477,160.408 35.833,160.482 35.833 C 160.557 35.833,161.124 36.281,161.744 36.828 C 162.364 37.375,163.007 37.866,163.174 37.919 C 163.341 37.972,163.673 38.350,163.913 38.759 C 164.153 39.168,164.552 39.628,164.799 39.782 C 165.589 40.272,166.009 40.723,166.317 41.412 C 166.617 42.082,167.394 43.031,168.858 44.516 C 169.284 44.948,169.702 45.427,169.789 45.581 C 170.156 46.238,172.462 48.393,173.195 48.764 C 173.688 49.014,174.097 49.370,174.266 49.698 C 174.417 49.990,174.925 50.619,175.395 51.096 C 176.439 52.156,177.814 53.725,178.883 55.074 C 180.020 56.510,179.964 56.451,181.574 57.917 C 182.379 58.650,183.348 59.446,183.727 59.686 C 184.107 59.926,184.567 60.290,184.750 60.496 C 184.933 60.701,185.438 61.049,185.872 61.269 C 186.417 61.546,186.762 61.866,186.985 62.305 C 187.163 62.654,187.596 63.200,187.946 63.519 C 188.297 63.838,188.790 64.395,189.042 64.758 C 189.294 65.120,190.143 65.942,190.927 66.583 C 191.712 67.225,192.706 68.077,193.135 68.476 C 193.565 68.875,194.196 69.381,194.538 69.601 C 194.880 69.820,195.471 70.337,195.851 70.750 C 196.231 71.162,196.634 71.500,196.747 71.500 C 197.025 71.500,197.856 72.339,198.191 72.959 C 198.380 73.308,198.809 73.630,199.565 73.991 C 200.170 74.280,200.994 74.801,201.397 75.149 C 201.799 75.497,202.418 75.958,202.772 76.173 C 203.127 76.388,203.642 76.781,203.917 77.047 C 204.192 77.313,204.867 77.759,205.417 78.039 C 205.967 78.318,206.642 78.718,206.917 78.927 C 207.970 79.728,208.918 79.950,211.667 80.043 C 213.408 80.102,214.494 80.217,215.000 80.396 C 215.935 80.727,217.223 80.737,219.210 80.426 C 220.057 80.294,221.125 80.146,221.583 80.098 C 224.044 79.841,224.471 79.763,225.073 79.459 C 225.434 79.277,225.833 79.024,225.960 78.897 C 226.088 78.769,226.880 78.324,227.721 77.907 C 229.459 77.046,231.107 75.952,232.083 75.011 C 232.450 74.658,232.938 74.314,233.167 74.246 C 233.812 74.056,235.167 73.343,235.167 73.194 C 235.167 72.913,236.417 71.616,236.871 71.425 C 237.499 71.160,238.960 69.997,240.280 68.708 C 240.868 68.135,241.422 67.667,241.511 67.667 C 241.729 67.667,243.966 65.425,244.588 64.583 C 244.860 64.217,245.190 63.848,245.324 63.765 C 245.721 63.516,246.665 62.432,246.666 62.223 C 246.667 61.975,247.622 61.167,247.915 61.167 C 248.038 61.167,248.436 60.828,248.800 60.415 C 249.232 59.925,249.835 59.494,250.536 59.176 C 251.970 58.526,253.930 56.618,254.860 54.965 C 255.236 54.297,255.868 53.428,256.263 53.034 C 256.659 52.640,257.033 52.152,257.094 51.950 C 257.255 51.424,257.665 51.005,258.266 50.754 C 258.554 50.634,259.032 50.233,259.329 49.864 C 259.626 49.495,260.293 48.931,260.811 48.610 C 262.158 47.779,265.016 44.788,265.635 43.564 C 265.919 42.999,266.321 42.474,266.569 42.341 C 266.817 42.208,267.183 41.728,267.424 41.220 C 267.705 40.626,268.051 40.200,268.468 39.937 C 268.810 39.721,269.377 39.195,269.726 38.768 C 270.076 38.341,270.642 37.849,270.984 37.675 C 271.696 37.311,273.667 35.278,273.667 34.906 C 273.667 34.770,274.105 34.187,274.641 33.611 C 275.317 32.884,275.737 32.243,276.016 31.513 C 276.313 30.734,276.603 30.308,277.137 29.868 C 277.533 29.541,277.996 29.001,278.167 28.667 C 278.337 28.333,278.764 27.869,279.117 27.636 C 279.473 27.400,279.926 26.884,280.137 26.474 C 280.346 26.068,281.195 25.027,282.024 24.160 C 282.854 23.293,283.781 22.246,284.085 21.833 C 284.390 21.421,284.879 20.858,285.174 20.583 C 285.468 20.308,285.989 19.483,286.331 18.750 C 286.774 17.801,287.147 17.262,287.629 16.878 C 288.011 16.574,288.388 16.091,288.494 15.767 C 288.889 14.571,289.437 13.673,290.000 13.298 C 290.321 13.084,290.769 12.559,290.997 12.131 C 291.254 11.645,291.642 11.221,292.026 11.005 C 292.383 10.805,292.865 10.298,293.170 9.802 C 293.460 9.331,293.790 8.853,293.905 8.738 C 294.019 8.624,294.348 8.163,294.636 7.715 C 294.930 7.256,295.444 6.739,295.810 6.533 C 296.168 6.332,296.751 5.876,297.106 5.521 C 298.323 4.300,300.659 3.703,304.750 3.568 C 306.125 3.523,307.550 3.430,307.917 3.361 C 309.279 3.106,359.562 3.316,360.791 3.582 C 361.897 3.822,363.440 4.495,363.709 4.857 C 364.654 6.122,364.340 9.348,363.200 10.083 C 362.916 10.267,362.361 10.624,361.967 10.876 C 361.572 11.129,360.837 11.632,360.333 11.992 C 359.829 12.353,359.321 12.653,359.205 12.658 C 359.088 12.663,358.664 12.970,358.262 13.340 C 357.860 13.710,357.093 14.228,356.557 14.490 C 356.022 14.752,355.433 15.108,355.250 15.282 C 354.770 15.736,353.559 16.522,352.500 17.067 C 351.996 17.326,351.466 17.671,351.322 17.834 C 351.178 17.996,350.765 18.282,350.405 18.470 C 349.736 18.818,348.959 19.476,348.718 19.898 C 348.644 20.028,347.997 20.408,347.281 20.742 C 346.293 21.204,345.896 21.491,345.636 21.931 C 345.262 22.564,344.879 22.804,343.533 23.244 C 343.047 23.403,342.319 23.819,341.915 24.169 C 341.510 24.518,340.746 24.963,340.215 25.157 C 339.002 25.599,338.500 25.853,338.500 26.023 C 338.500 26.096,338.069 26.432,337.542 26.768 C 337.015 27.104,336.073 27.819,335.449 28.356 C 334.825 28.894,334.255 29.333,334.183 29.333 C 334.110 29.333,333.663 29.729,333.189 30.212 C 332.600 30.812,332.051 31.189,331.455 31.400 C 330.904 31.596,330.338 31.967,329.917 32.410 C 329.394 32.959,328.990 33.190,328.044 33.483 C 327.167 33.754,326.644 34.038,326.127 34.524 C 325.736 34.892,324.929 35.415,324.333 35.687 C 323.737 35.959,322.950 36.474,322.583 36.830 C 322.217 37.187,321.490 37.727,320.968 38.031 C 319.536 38.865,317.669 40.146,316.872 40.842 C 316.481 41.184,315.753 41.657,315.255 41.893 C 314.756 42.129,314.218 42.531,314.058 42.786 C 313.569 43.566,313.243 43.800,312.144 44.161 C 311.563 44.352,310.803 44.736,310.456 45.016 C 310.108 45.295,309.248 45.786,308.545 46.106 C 307.841 46.427,306.992 46.928,306.657 47.220 C 306.322 47.511,305.644 47.997,305.149 48.299 C 304.655 48.601,303.950 49.114,303.583 49.438 C 303.217 49.763,302.617 50.220,302.250 50.454 C 301.883 50.689,301.282 51.155,300.914 51.491 C 300.526 51.845,299.907 52.196,299.441 52.327 C 298.917 52.473,298.337 52.824,297.777 53.334 C 296.804 54.218,296.538 54.378,295.395 54.765 C 294.949 54.916,294.315 55.281,293.987 55.577 C 293.659 55.872,292.946 56.327,292.404 56.588 C 291.861 56.848,291.105 57.343,290.723 57.687 C 290.342 58.031,289.656 58.502,289.198 58.734 C 288.741 58.966,288.222 59.339,288.047 59.562 C 287.871 59.786,287.132 60.282,286.405 60.666 C 285.678 61.049,284.821 61.566,284.500 61.814 C 284.179 62.063,283.563 62.471,283.130 62.721 C 282.697 62.971,282.060 63.513,281.715 63.926 C 281.271 64.457,280.892 64.727,280.419 64.849 C 278.416 65.366,278.000 65.535,277.618 65.989 C 277.396 66.253,276.623 66.780,275.899 67.161 C 275.175 67.543,274.319 68.065,273.997 68.321 C 273.674 68.578,273.089 68.951,272.697 69.151 C 272.306 69.351,271.707 69.760,271.367 70.060 C 271.028 70.361,270.412 70.777,270.000 70.985 C 269.587 71.194,268.861 71.656,268.386 72.013 C 267.910 72.370,267.085 72.854,266.552 73.088 C 266.019 73.323,265.208 73.877,264.750 74.320 C 264.146 74.903,263.576 75.252,262.675 75.589 C 261.949 75.861,261.153 76.308,260.758 76.665 C 260.387 77.001,259.606 77.451,259.024 77.665 C 258.441 77.879,257.604 78.361,257.164 78.735 C 256.724 79.110,255.851 79.637,255.224 79.906 C 254.596 80.175,253.858 80.556,253.583 80.754 C 253.308 80.951,252.786 81.249,252.422 81.415 C 252.058 81.581,251.383 82.072,250.922 82.505 C 250.461 82.939,249.555 83.558,248.908 83.882 C 248.262 84.206,247.426 84.727,247.050 85.041 C 246.340 85.634,246.035 85.776,244.500 86.227 C 243.017 86.662,242.500 87.056,242.500 87.748 L 242.500 88.333 243.583 88.333 L 244.667 88.333 244.667 87.830 C 244.667 87.223,244.864 87.124,246.824 86.747 C 248.265 86.470,248.833 86.116,248.833 85.495 C 248.833 85.337,248.927 85.132,249.042 85.040 C 249.229 84.889,249.434 84.829,250.583 84.592 C 251.692 84.364,252.262 84.036,252.548 83.462 C 252.842 82.873,253.552 82.451,254.560 82.269 C 255.218 82.149,255.621 81.870,255.725 81.463 C 255.797 81.181,256.230 80.891,257.411 80.333 C 258.554 79.793,259.027 79.480,259.099 79.216 C 259.167 78.967,259.449 78.760,259.974 78.573 C 260.401 78.421,260.955 78.222,261.207 78.129 C 261.458 78.037,261.922 77.675,262.238 77.325 C 262.682 76.833,263.113 76.590,264.142 76.248 C 265.486 75.802,265.875 75.531,266.065 74.908 C 266.147 74.634,266.481 74.490,267.715 74.192 C 269.292 73.812,269.667 73.555,269.667 72.855 C 269.667 72.444,270.247 72.072,271.116 71.925 C 271.842 71.803,273.333 70.960,273.333 70.672 C 273.333 70.471,274.415 69.767,275.000 69.588 C 275.528 69.426,276.000 69.016,276.171 68.569 C 276.257 68.345,276.654 68.094,277.289 67.863 C 277.994 67.606,278.423 67.319,278.795 66.856 C 279.249 66.291,279.494 66.160,280.700 65.837 C 282.278 65.413,282.423 65.322,282.805 64.518 C 283.063 63.977,283.185 63.908,284.447 63.586 C 285.836 63.233,286.500 62.830,286.500 62.343 C 286.500 62.041,287.166 61.605,287.892 61.432 C 288.601 61.263,289.109 60.876,289.333 60.335 C 289.465 60.015,289.694 59.817,290.011 59.748 C 290.274 59.690,290.735 59.479,291.036 59.280 C 291.337 59.080,291.798 58.806,292.060 58.670 C 292.323 58.535,292.600 58.259,292.677 58.057 C 292.771 57.809,293.143 57.572,293.832 57.320 C 294.807 56.965,295.500 56.373,295.500 55.897 C 295.500 55.774,295.706 55.627,295.958 55.571 C 297.963 55.125,298.804 54.711,299.172 53.989 C 299.375 53.592,299.649 53.311,299.877 53.268 C 300.082 53.229,300.737 53.117,301.333 53.019 C 302.447 52.837,303.000 52.447,303.000 51.846 C 303.000 51.503,303.802 50.884,304.608 50.605 C 304.954 50.486,305.311 50.199,305.473 49.911 C 305.836 49.269,306.030 49.127,307.025 48.773 C 307.626 48.560,307.949 48.323,308.185 47.924 C 308.436 47.498,308.751 47.283,309.547 46.994 C 311.243 46.379,311.607 46.174,311.851 45.701 C 312.146 45.128,312.493 44.846,312.917 44.835 C 313.486 44.820,314.584 44.235,315.180 43.630 C 315.943 42.855,316.466 42.537,317.167 42.423 C 318.442 42.215,318.677 42.126,318.870 41.778 C 318.981 41.579,319.056 41.363,319.037 41.297 C 319.019 41.231,319.171 41.089,319.377 40.981 C 320.127 40.588,321.587 39.589,321.718 39.379 C 321.990 38.941,322.768 38.323,323.451 38.001 C 323.837 37.820,324.315 37.452,324.514 37.184 C 324.742 36.874,325.229 36.567,325.846 36.342 C 326.497 36.105,326.999 35.779,327.367 35.356 C 327.880 34.766,328.732 34.332,330.250 33.889 C 330.585 33.791,330.860 33.531,331.083 33.102 C 331.390 32.513,331.512 32.437,332.616 32.157 C 333.890 31.834,334.667 31.429,334.667 31.087 C 334.667 30.664,335.399 29.967,336.229 29.599 C 336.758 29.365,337.177 29.044,337.330 28.758 C 337.481 28.475,337.901 28.151,338.413 27.924 C 338.874 27.719,339.529 27.264,339.870 26.911 C 340.313 26.453,340.883 26.124,341.870 25.758 C 343.037 25.324,343.293 25.160,343.527 24.693 C 343.886 23.977,343.807 24.032,344.878 23.753 C 346.049 23.448,346.783 23.005,347.169 22.369 C 347.370 22.039,347.743 21.775,348.278 21.584 C 348.721 21.427,349.284 21.223,349.530 21.133 C 349.779 21.042,350.093 20.724,350.240 20.414 C 350.427 20.021,350.687 19.798,351.127 19.653 C 352.156 19.315,353.406 18.580,353.572 18.217 C 353.731 17.869,354.423 17.446,355.167 17.242 C 355.682 17.101,356.323 16.535,356.507 16.058 C 356.589 15.846,356.906 15.616,357.281 15.497 C 358.185 15.208,359.621 14.371,359.903 13.969 C 360.160 13.602,361.061 13.000,361.354 13.000 C 361.810 13.000,362.655 12.430,362.832 12.003 C 362.941 11.739,363.201 11.486,363.418 11.431 C 364.041 11.275,364.794 10.540,365.014 9.874 C 365.126 9.535,365.385 9.126,365.589 8.966 C 366.590 8.179,366.558 6.148,365.528 5.078 C 365.329 4.872,365.166 4.639,365.165 4.560 C 365.164 4.481,364.789 4.024,364.332 3.544 C 363.874 3.064,363.500 2.610,363.500 2.535 C 363.500 2.400,362.687 2.061,361.966 1.896 C 360.476 1.554,320.772 1.458,306.417 1.761 C 298.250 1.934,298.629 1.891,298.354 2.678 C 298.230 3.036,297.955 3.266,297.301 3.559 C 296.815 3.777,296.229 4.162,296.000 4.415 C 295.460 5.010,293.398 6.667,293.195 6.667 C 293.028 6.667,291.833 8.979,291.833 9.303 C 291.833 9.410,291.552 9.630,291.208 9.792 C 290.627 10.065,290.460 10.293,289.832 11.667 C 289.769 11.804,289.556 11.998,289.360 12.098 C 288.667 12.450,288.367 12.862,287.926 14.073 C 287.477 15.304,287.304 15.551,286.454 16.186 C 286.199 16.376,285.835 16.843,285.644 17.224 C 285.453 17.605,285.075 18.095,284.804 18.313 C 284.532 18.530,284.134 19.108,283.918 19.597 C 283.610 20.293,283.387 20.551,282.887 20.786 C 282.440 20.996,282.198 21.246,282.076 21.623 C 281.884 22.216,281.055 23.167,280.731 23.167 C 280.506 23.167,279.522 24.708,279.108 25.709 C 278.955 26.080,278.681 26.400,278.437 26.492 C 277.968 26.671,277.167 27.757,277.167 28.214 C 277.167 28.401,276.950 28.608,276.599 28.754 C 276.007 29.002,275.333 29.718,275.333 30.100 C 275.333 30.596,274.750 31.515,274.375 31.609 C 274.113 31.675,273.952 31.865,273.888 32.187 C 273.823 32.511,273.033 33.442,271.466 35.042 C 270.187 36.348,268.918 37.735,268.646 38.125 C 268.374 38.514,267.932 38.946,267.664 39.085 C 267.129 39.361,266.829 39.816,266.675 40.583 C 266.606 40.926,266.406 41.168,266.039 41.353 C 265.235 41.758,265.036 41.968,264.821 42.638 C 264.565 43.436,264.257 43.774,263.681 43.889 C 263.330 43.959,263.125 44.167,262.870 44.709 C 262.469 45.562,262.293 45.722,261.464 45.989 C 260.951 46.155,260.826 46.285,260.739 46.750 C 260.622 47.374,260.292 47.733,259.667 47.916 C 259.063 48.093,258.500 48.666,258.500 49.103 C 258.500 49.528,258.362 49.644,257.421 50.003 C 256.992 50.167,256.675 50.430,256.519 50.753 C 255.926 51.980,255.847 52.073,255.243 52.242 C 254.720 52.390,254.556 52.557,254.187 53.324 C 253.835 54.054,253.636 54.269,253.168 54.422 C 252.704 54.573,252.551 54.736,252.416 55.219 C 252.199 55.992,251.819 56.368,251.038 56.584 C 250.578 56.711,250.342 56.907,250.129 57.336 C 249.922 57.755,249.643 57.992,249.129 58.187 C 248.412 58.458,248.094 58.856,247.924 59.697 C 247.851 60.054,247.657 60.209,246.958 60.468 C 246.201 60.748,246.054 60.878,245.869 61.428 C 245.577 62.293,245.403 62.468,244.628 62.677 C 244.048 62.833,243.917 62.962,243.618 63.669 C 243.309 64.400,243.211 64.491,242.620 64.591 C 241.820 64.726,241.334 65.180,241.333 65.792 C 241.332 66.180,241.199 66.313,240.458 66.667 C 239.828 66.967,239.490 67.258,239.250 67.708 C 239.056 68.073,238.678 68.447,238.344 68.606 C 237.444 69.034,236.167 70.008,236.167 70.266 C 236.167 70.395,236.106 70.500,236.033 70.500 C 235.959 70.500,235.632 70.744,235.306 71.043 C 234.980 71.341,234.517 71.690,234.276 71.819 C 234.036 71.948,233.795 72.192,233.741 72.362 C 233.613 72.765,232.942 73.095,231.961 73.238 C 231.158 73.355,230.667 73.775,230.667 74.344 C 230.667 74.606,228.936 75.406,227.984 75.584 C 227.554 75.665,227.000 76.231,227.000 76.590 C 227.000 76.770,225.451 77.491,225.035 77.504 C 224.970 77.506,224.729 77.654,224.500 77.833 C 224.271 78.013,223.952 78.161,223.792 78.163 C 223.631 78.165,223.500 78.240,223.500 78.329 C 223.500 79.129,217.333 79.615,212.750 79.175 C 210.394 78.949,209.794 78.785,208.970 78.138 C 208.632 77.873,207.946 77.515,207.444 77.343 C 206.117 76.886,205.888 76.731,205.782 76.214 C 205.618 75.410,205.295 75.139,204.407 75.057 C 202.924 74.919,202.873 74.892,202.752 74.180 C 202.638 73.503,202.454 73.354,201.595 73.240 C 200.912 73.149,199.668 72.617,199.667 72.415 C 199.667 72.323,199.208 71.873,198.647 71.415 C 198.086 70.958,197.195 70.151,196.667 69.623 C 196.138 69.095,195.472 68.581,195.186 68.482 C 194.900 68.382,194.667 68.226,194.667 68.134 C 194.667 67.749,193.945 67.003,193.244 66.664 C 192.712 66.406,192.420 66.132,192.254 65.734 C 192.092 65.346,191.821 65.085,191.384 64.898 C 190.370 64.463,190.278 64.407,190.163 64.156 C 189.682 63.104,189.523 62.901,189.061 62.750 C 188.352 62.518,188.039 62.223,187.918 61.672 C 187.788 61.079,187.417 60.741,186.595 60.466 C 186.240 60.347,185.898 60.137,185.835 60.000 C 185.317 58.867,185.210 58.747,184.506 58.502 C 183.934 58.303,183.694 58.099,183.427 57.584 C 183.232 57.209,182.866 56.820,182.583 56.689 C 181.899 56.372,181.213 55.708,181.099 55.252 C 181.045 55.039,180.757 54.756,180.441 54.606 C 179.773 54.289,179.528 54.018,179.083 53.103 C 178.889 52.702,178.611 52.392,178.417 52.358 C 177.925 52.272,177.369 51.695,177.156 51.050 C 177.013 50.619,176.784 50.393,176.208 50.116 C 175.432 49.742,175.315 49.605,175.061 48.779 C 174.925 48.334,174.703 48.161,173.643 47.668 C 173.387 47.549,173.101 47.204,172.960 46.846 C 172.787 46.405,172.533 46.141,172.067 45.921 C 171.350 45.581,171.013 45.228,171.005 44.806 C 170.999 44.455,170.073 43.667,169.667 43.667 C 169.460 43.667,169.237 43.393,168.978 42.820 C 168.671 42.142,168.448 41.901,167.858 41.612 C 167.279 41.328,167.075 41.112,166.908 40.609 C 166.652 39.839,166.058 39.167,165.632 39.167 C 165.422 39.167,165.215 38.919,164.993 38.400 C 164.587 37.452,163.944 36.699,162.333 35.281 C 161.646 34.676,160.746 33.717,160.333 33.151 C 159.921 32.584,159.404 31.930,159.186 31.697 C 158.967 31.463,158.639 30.930,158.457 30.511 C 158.063 29.603,157.547 29.000,157.163 29.000 C 156.834 29.000,156.334 28.490,156.333 28.154 C 156.332 27.727,155.691 26.855,155.188 26.594 C 154.865 26.427,154.625 26.122,154.492 25.711 C 154.381 25.366,154.188 24.896,154.063 24.667 C 153.938 24.438,153.762 24.043,153.671 23.790 C 153.581 23.536,153.299 23.237,153.045 23.124 C 152.447 22.857,151.962 22.261,151.736 21.514 C 151.602 21.068,151.425 20.873,151.041 20.746 C 150.335 20.511,149.881 20.067,149.657 19.389 C 149.538 19.026,149.240 18.673,148.839 18.420 C 148.450 18.175,148.164 17.842,148.093 17.553 C 147.917 16.840,147.559 16.375,146.829 15.914 C 146.465 15.684,146.167 15.417,146.167 15.321 C 146.167 14.816,145.190 13.167,144.539 12.571 C 143.976 12.057,143.748 11.694,143.595 11.071 C 143.416 10.348,143.306 10.206,142.665 9.877 C 142.131 9.603,141.843 9.306,141.576 8.752 C 141.282 8.141,139.458 6.172,138.312 5.228 C 138.186 5.124,137.841 4.776,137.545 4.454 C 137.238 4.120,136.644 3.739,136.161 3.565 C 135.504 3.329,135.255 3.135,135.048 2.698 C 134.901 2.389,134.624 2.070,134.432 1.989 C 133.697 1.681,123.673 1.537,104.250 1.556 C 93.158 1.567,83.994 1.519,83.884 1.450 C 83.380 1.133,81.201 1.113,81.141 1.426 M79.030 2.131 C 79.054 2.446,79.158 2.595,79.354 2.595 C 79.512 2.595,79.610 2.543,79.570 2.479 C 79.530 2.414,79.592 2.317,79.707 2.262 C 79.822 2.208,79.748 2.194,79.542 2.233 C 79.292 2.279,79.167 2.221,79.167 2.058 C 79.167 1.924,79.242 1.860,79.333 1.917 C 79.425 1.973,79.500 1.940,79.500 1.843 C 79.500 1.746,79.386 1.667,79.247 1.667 C 79.074 1.667,79.006 1.812,79.030 2.131 M72.752 12.417 C 72.896 13.438,73.217 13.977,73.805 14.182 C 74.963 14.585,76.933 15.726,77.399 16.262 C 77.684 16.590,78.367 17.096,78.917 17.387 C 79.623 17.761,79.932 18.027,79.970 18.292 C 79.999 18.498,80.097 18.667,80.188 18.667 C 80.279 18.667,80.307 18.742,80.250 18.833 C 80.193 18.925,80.283 19.003,80.448 19.008 C 80.614 19.012,81.200 19.258,81.750 19.554 L 82.750 20.093 82.713 21.047 C 82.677 21.982,83.060 22.410,83.417 21.833 C 83.735 21.318,86.280 21.792,86.365 22.382 C 86.393 22.578,86.638 22.854,86.909 22.994 C 87.179 23.135,87.550 23.381,87.732 23.542 C 87.914 23.702,88.142 23.834,88.240 23.834 C 88.937 23.838,89.614 24.210,89.904 24.748 C 90.141 25.187,90.393 25.386,90.902 25.534 C 91.758 25.782,92.302 26.109,92.833 26.696 C 93.063 26.949,93.831 27.465,94.542 27.842 C 95.252 28.220,95.833 28.629,95.833 28.752 C 95.833 29.089,96.623 29.642,97.397 29.848 C 98.241 30.073,98.617 30.393,98.750 31.001 C 98.842 31.417,99.024 31.528,100.433 32.023 C 101.744 32.484,102.066 32.668,102.322 33.101 C 102.554 33.494,102.913 33.733,103.773 34.064 C 105.081 34.567,105.184 34.630,105.431 35.078 C 105.644 35.463,107.114 36.238,108.124 36.497 C 108.648 36.632,108.899 36.811,109.094 37.188 C 109.256 37.501,109.629 37.816,110.065 38.009 C 110.886 38.372,111.667 39.045,111.667 39.390 C 111.667 39.687,112.606 40.148,113.917 40.492 C 114.840 40.734,114.941 40.809,115.235 41.457 C 115.485 42.007,115.683 42.197,116.152 42.336 C 118.294 42.972,118.507 43.076,118.923 43.676 C 119.389 44.348,119.741 44.566,120.799 44.835 C 121.344 44.973,121.553 45.124,121.674 45.467 C 121.956 46.263,122.097 46.398,122.847 46.594 C 124.095 46.919,124.720 47.253,125.509 48.016 C 125.927 48.420,126.597 48.862,126.999 49.000 C 127.572 49.196,127.805 49.395,128.074 49.917 C 128.346 50.445,128.523 50.594,128.926 50.633 C 129.578 50.697,130.246 51.278,130.403 51.917 C 130.639 52.876,130.906 53.011,133.000 53.232 C 133.910 53.328,134.126 53.479,134.243 54.103 C 134.369 54.778,134.526 54.861,136.475 55.280 C 137.668 55.536,137.917 55.651,138.219 56.081 C 138.699 56.766,138.973 56.964,139.742 57.179 C 140.129 57.288,140.644 57.626,140.992 57.999 C 141.584 58.634,142.702 59.277,143.875 59.657 C 144.219 59.768,144.511 59.966,144.525 60.096 C 144.539 60.227,144.557 60.427,144.567 60.542 C 144.593 60.870,145.369 61.331,145.897 61.332 C 146.541 61.334,147.442 61.912,147.565 62.403 C 147.620 62.623,147.869 62.885,148.124 62.990 C 148.377 63.095,148.808 63.303,149.083 63.453 C 149.358 63.603,149.808 63.771,150.083 63.827 C 150.448 63.901,150.676 64.108,150.926 64.589 C 151.241 65.195,151.386 65.289,152.676 65.720 C 153.758 66.082,154.257 66.357,154.833 66.909 C 155.299 67.355,155.905 67.732,156.430 67.901 C 156.973 68.077,157.407 68.351,157.641 68.667 C 157.857 68.960,158.561 69.427,159.377 69.821 C 160.388 70.308,160.848 70.637,161.122 71.067 C 161.400 71.506,161.672 71.696,162.205 71.827 C 163.368 72.113,163.726 72.367,163.855 72.995 C 163.978 73.597,164.374 74.000,164.845 74.000 C 166.046 74.000,167.494 74.551,167.789 75.120 C 168.065 75.651,168.249 75.758,169.744 76.252 C 170.669 76.558,171.491 76.934,171.614 77.107 C 172.079 77.765,172.518 78.135,172.958 78.238 C 173.891 78.456,174.355 78.726,174.595 79.190 C 174.769 79.525,175.222 79.847,176.129 80.276 C 177.454 80.904,177.819 81.210,177.828 81.698 C 177.835 82.085,178.091 82.212,179.147 82.355 C 180.185 82.496,180.559 82.799,180.868 83.748 C 181.114 84.507,181.384 84.614,183.133 84.647 C 184.312 84.669,185.000 85.127,185.000 85.889 C 185.000 86.508,185.300 86.640,187.007 86.768 C 189.054 86.922,189.667 87.168,189.667 87.836 L 189.667 88.333 190.750 88.333 L 191.833 88.333 191.833 87.761 C 191.833 86.975,191.296 86.630,189.244 86.096 C 187.463 85.633,186.886 85.372,186.053 84.654 C 185.762 84.403,184.975 84.024,184.305 83.813 C 183.635 83.601,182.904 83.276,182.681 83.089 C 182.458 82.903,181.889 82.412,181.417 82.000 C 179.827 80.611,179.639 80.477,178.443 79.880 C 177.787 79.553,177.002 79.070,176.700 78.807 C 176.397 78.543,175.531 78.032,174.775 77.669 C 174.019 77.307,173.217 76.811,172.992 76.567 C 172.602 76.143,171.770 75.700,171.140 75.578 C 170.476 75.450,169.549 74.911,169.000 74.333 C 168.595 73.907,168.079 73.608,167.314 73.354 C 166.511 73.087,165.948 72.751,165.247 72.119 C 164.717 71.641,164.126 71.145,163.933 71.016 C 163.741 70.887,163.396 70.613,163.167 70.405 C 162.938 70.198,162.151 69.714,161.418 69.330 C 160.685 68.947,159.821 68.393,159.497 68.101 C 159.173 67.808,158.423 67.393,157.829 67.177 C 157.051 66.895,156.530 66.563,155.960 65.985 C 155.188 65.201,154.665 64.954,153.304 64.729 C 152.865 64.657,152.550 64.451,152.192 64.006 C 151.916 63.664,151.286 63.192,150.788 62.956 C 150.290 62.721,149.628 62.232,149.317 61.870 C 149.005 61.508,148.337 60.938,147.833 60.603 C 147.329 60.269,146.579 59.735,146.167 59.417 C 145.754 59.100,145.079 58.712,144.667 58.556 C 144.254 58.400,143.654 58.071,143.333 57.824 C 143.012 57.577,142.148 57.074,141.413 56.705 C 140.677 56.336,139.777 55.769,139.413 55.444 C 138.980 55.059,138.403 54.761,137.750 54.585 C 136.348 54.208,136.019 54.028,135.167 53.166 C 134.731 52.725,134.137 52.322,133.750 52.202 C 133.078 51.995,132.731 51.737,130.686 49.917 C 130.069 49.367,128.951 48.587,128.202 48.185 C 127.453 47.782,126.723 47.272,126.578 47.051 C 126.432 46.829,125.746 46.390,125.040 46.069 C 124.340 45.750,123.503 45.285,123.182 45.036 C 122.860 44.787,122.108 44.393,121.509 44.160 C 120.691 43.842,120.328 43.593,120.048 43.160 C 119.438 42.215,119.158 42.011,117.987 41.663 C 117.051 41.384,116.772 41.210,116.259 40.583 C 115.922 40.172,115.294 39.633,114.865 39.386 C 114.435 39.140,113.837 38.727,113.536 38.469 C 113.235 38.211,112.912 38.000,112.818 38.000 C 112.724 38.000,112.257 37.634,111.782 37.188 C 110.856 36.318,110.091 35.878,108.732 35.434 C 108.264 35.281,107.702 34.965,107.483 34.731 C 107.263 34.498,106.490 33.998,105.764 33.620 C 105.037 33.242,104.100 32.636,103.680 32.273 C 103.260 31.909,102.542 31.443,102.083 31.237 C 101.625 31.031,100.671 30.424,99.964 29.889 C 99.257 29.354,98.395 28.710,98.048 28.458 C 97.701 28.206,97.105 27.756,96.725 27.458 C 95.283 26.330,94.217 25.616,93.250 25.131 C 92.700 24.855,91.991 24.432,91.675 24.190 C 91.358 23.948,90.535 23.519,89.845 23.237 C 88.765 22.795,88.531 22.624,88.170 22.008 C 87.784 21.350,87.641 21.257,86.383 20.849 C 85.632 20.605,84.991 20.371,84.960 20.328 C 84.928 20.285,84.718 19.970,84.493 19.627 C 84.254 19.263,83.829 18.902,83.471 18.759 C 83.135 18.624,82.572 18.224,82.221 17.870 C 81.870 17.517,81.058 16.918,80.417 16.540 C 79.775 16.161,78.987 15.618,78.667 15.332 C 78.346 15.047,77.713 14.622,77.261 14.388 C 76.809 14.154,76.069 13.709,75.617 13.398 C 75.166 13.088,74.729 12.824,74.648 12.813 C 74.489 12.790,74.482 12.788,73.789 12.593 C 73.535 12.521,73.172 12.265,72.981 12.023 L 72.635 11.583 72.752 12.417 " stroke="none" fill="#c5c5c4" fill-rule="evenodd"></path></g></svg>